<svg xmlns="http://www.w3.org/2000/svg" viewBox="0 0 2400 1400" width="2400" height="1400"><defs><filter id="g"><feTurbulence type="fractalNoise" baseFrequency="0.9" numOctaves="2"/><feColorMatrix type="matrix" values="0 0 0 0 0  0 0 0 0 0  0 0 0 0 0  0 0 0 0.05 0"/></filter></defs><rect width="2400" height="1400" fill="#1B75BB"/><path d="M 1901.2 1124.5 Q 2041.9 1224.2 1940.2 1518 Q 1838.4 1811.8 1361.1 1901.9 Q 883.8 1991.9 865.7 1697.8 Q 847.6 1403.6 664.1 1117.3 Q 480.7 831 712.5 664.4 Q 944.3 497.7 1217.5 590.4 Q 1490.7 683.1 1625.6 853.9 Q 1760.4 1024.7 1901.2 1124.5 Z" fill="#B0202B" opacity="0.9"/><path d="M 1763.6 693.3 Q 1844.6 997.1 1646.2 1089.9 Q 1447.9 1182.7 1252.1 1086.7 Q 1056.4 990.7 949.1 788.4 Q 841.8 586.1 1059.4 408.5 Q 1277 230.9 1479.8 310.3 Q 1682.7 389.6 1763.6 693.3 Z" fill="#F26B3A" opacity="0.8"/><path d="M 3258 600.4 Q 3311.6 1095 3014.2 1348.4 Q 2716.9 1601.7 2210.1 1418.9 Q 1703.4 1236.2 1642 831.6 Q 1580.6 427 1898 123.2 Q 2215.3 -180.7 2709.8 -37.4 Q 3204.4 105.8 3258 600.4 Z" fill="#1B75BB" opacity="0.9"/><path d="M 575 379.7 Q 773.3 536.5 548.8 629.9 Q 324.3 723.3 210.8 777.5 Q 97.4 831.6 -55.7 754.4 Q -208.7 677.1 -312.4 578.1 Q -416 479.2 -461.2 298.3 Q -506.4 117.5 -228.5 68.5 Q 49.4 19.5 235.8 24.2 Q 422.2 28.9 399.5 125.9 Q 376.7 222.8 575 379.7 Z" fill="#F26B3A" opacity="0.9"/><path d="M 2670.3 1012.5 Q 2775.5 1463.3 2461.9 1611.2 Q 2148.3 1759 1916.7 1570.3 Q 1685 1381.6 1567.9 1192.2 Q 1450.7 1002.9 1699.6 814.8 Q 1948.6 626.8 2256.8 594.2 Q 2565.1 561.6 2670.3 1012.5 Z" fill="#F26B3A" opacity="0.9"/><path d="M 1185.7 -34.4 Q 1316.8 287.5 1046 434 Q 775.2 580.5 453.2 708.8 Q 131.3 837.2 62.2 478 Q -6.9 118.9 -23.7 -105.5 Q -40.6 -330 259.4 -314.4 Q 559.3 -298.8 807 -327.5 Q 1054.6 -356.2 1185.7 -34.4 Z" fill="#E0A526" opacity="0.9"/><path d="M 2700.1 1053.2 Q 2632.9 1184.1 2589 1330.6 Q 2545 1477.1 2345.6 1539.8 Q 2146.1 1602.5 2033.6 1447.7 Q 1921 1292.9 1910.8 1145.2 Q 1900.5 997.6 1966.6 900.9 Q 2032.6 804.2 2189.4 849.3 Q 2346.1 894.4 2556.7 908.3 Q 2767.3 922.2 2700.1 1053.2 Z" fill="#B0202B" opacity="0.8"/><path d="M 1611.4 67.8 Q 1753.3 474.2 1370.2 855.9 Q 987.1 1237.6 561.6 1083.2 Q 136 928.9 -65.1 629.9 Q -266.3 331 119 66.7 Q 504.2 -197.5 986.8 -268 Q 1469.4 -338.5 1611.4 67.8 Z" fill="#B0202B" opacity="0.9"/><path d="M 2025.3 874.8 Q 2248.6 1110.2 2045 1293.1 Q 1841.4 1476 1603.8 1475.3 Q 1366.3 1474.6 1055.2 1199.3 Q 744.1 924.1 798.1 720.7 Q 852.1 517.3 1198.7 427.1 Q 1545.3 336.9 1673.7 488.2 Q 1802 639.4 2025.3 874.8 Z" fill="#00776F" opacity="0.9"/><path d="M 2330.5 457.6 Q 1656.5 39 1881.8 47.9" fill="none" stroke="#FFCD00" stroke-width="30.5" stroke-linecap="round" opacity="0.8"/><path d="M 1134.1 522.5 Q 1121.4 104.4 829.6 189.1" fill="none" stroke="#14568A" stroke-width="94.3" stroke-linecap="round" opacity="0.6"/><path d="M 194.9 19 Q -101.6 -189.6 -173.2 -532.7" fill="none" stroke="#14568A" stroke-width="99.3" stroke-linecap="round" opacity="0.7"/><path d="M 566.8 593.7 Q 523.3 910.9 1123.9 1025.9" fill="none" stroke="#F1EFE8" stroke-width="84" stroke-linecap="round" opacity="0.7"/><path d="M 2088.8 1081 Q 2004.2 811.1 2709.7 736.9" fill="none" stroke="#B0202B" stroke-width="52.7" stroke-linecap="round" opacity="0.6"/><path d="M 1871.3 522.5 Q 1986.3 443.8 1530.6 689.8" fill="none" stroke="#F1EFE8" stroke-width="40.1" stroke-linecap="round" opacity="0.6"/><path d="M 193.4 114.4 Q -293.1 85 -473.9 347.3" fill="none" stroke="#EF3340" stroke-width="26" stroke-linecap="round" opacity="0.8"/><path d="M 2382.5 112.4 Q 3029.9 15.5 3247.9 363.9" fill="none" stroke="#EF3340" stroke-width="83.7" stroke-linecap="round" opacity="0.6"/><path d="M 677 956.8 Q 263.7 1165.5 -107.8 1013.4" fill="none" stroke="#F26B3A" stroke-width="69.7" stroke-linecap="round" opacity="0.8"/><path d="M 1062 758.5 Q 1142.1 515.7 1532.5 345" fill="none" stroke="#00A398" stroke-width="36.7" stroke-linecap="round" opacity="0.8"/><path d="M 1419 331.5 Q 1644.9 409.4 2207.2 711.9" fill="none" stroke="#14568A" stroke-width="56.9" stroke-linecap="round" opacity="0.9"/><path d="M 973.2 1046.3 Q 1622.3 1017.9 1932.5 825.8" fill="none" stroke="#E0A526" stroke-width="69.9" stroke-linecap="round" opacity="0.9"/><path d="M 255.4 1312.7 Q 504.1 1242.8 441.5 1587" fill="none" stroke="#EF3340" stroke-width="85.2" stroke-linecap="round" opacity="0.9"/><path d="M 1512.9 1247.3 Q 1284.3 1030.8 1305.4 1310.9" fill="none" stroke="#E0A526" stroke-width="25.9" stroke-linecap="round" opacity="0.7"/><path d="M 511.4 892.8 Q 384 1168.7 -198.3 1286.1" fill="none" stroke="#B0202B" stroke-width="99.7" stroke-linecap="round" opacity="0.8"/><rect width="2400" height="1400" filter="url(#g)"/></svg>