<svg xmlns="http://www.w3.org/2000/svg" viewBox="0 0 1600 1000" width="1600" height="1000"><defs><filter id="g"><feTurbulence type="fractalNoise" baseFrequency="0.9" numOctaves="2"/><feColorMatrix type="matrix" values="0 0 0 0 0  0 0 0 0 0  0 0 0 0 0  0 0 0 0.06 0"/></filter></defs><rect width="1600" height="1000" fill="#B98A54"/><path d="M 1182.1 418 Q 1197.4 680.1 1038.6 942.8 Q 879.9 1205.6 651.8 1012.2 Q 423.7 818.8 418.6 563.7 Q 413.6 308.7 534.9 62.9 Q 656.2 -183 911.5 -13.6 Q 1166.8 155.9 1182.1 418 Z" fill="#A97B45"/><path d="M 939.5 342.7 Q 949.8 378.9 935.9 407.2 Q 921.9 435.5 875.8 455.4 Q 829.7 475.2 773.4 440.3 Q 717 405.4 703 349.6 Q 689 293.8 727.9 259.1 Q 766.8 224.4 829.3 241.6 Q 891.8 258.8 910.5 282.7 Q 929.1 306.6 939.5 342.7 Z" fill="#FFCD00" opacity="0.9"/><path d="M 420.6 288 Q 427.9 308.7 409.5 329 Q 391 349.4 364.5 336.6 Q 338 323.9 323.7 308.4 Q 309.4 292.9 329.7 268.2 Q 350 243.5 381.7 255.4 Q 413.4 267.3 420.6 288 Z" fill="#F26B3A" opacity="0.9"/><path d="M 1422.8 221.7 Q 1432.3 252.3 1412.8 278.7 Q 1393.3 305.1 1358.8 292.7 Q 1324.3 280.3 1283.5 269.2 Q 1242.7 258.1 1260.5 237.7 Q 1278.3 217.3 1303.9 189.2 Q 1329.5 161.1 1364.1 147.3 Q 1398.7 133.5 1406.1 162.3 Q 1413.4 191.1 1422.8 221.7 Z" fill="#F26B3A" opacity="1"/><path d="M 1127.1 641.9 Q 1129.5 666.3 1122.4 689 Q 1115.3 711.6 1102.6 711 Q 1089.9 710.3 1061.8 694.6 Q 1033.6 678.8 1030.6 661.6 Q 1027.5 644.4 1028 627.9 Q 1028.6 611.4 1045.2 608.7 Q 1061.8 606 1088.5 598.6 Q 1115.2 591.2 1120 604.4 Q 1124.7 617.5 1127.1 641.9 Z" fill="#14568A" opacity="0.9"/><path d="M 512.2 611.2 Q 546.2 677.2 503.3 701.8 Q 460.4 726.5 400.2 711 Q 340 695.6 330.9 666.3 Q 321.9 637 353.4 585.7 Q 384.9 534.5 431.5 539.9 Q 478.2 545.2 512.2 611.2 Z" fill="#F26B3A" opacity="1"/><path d="M 1059 513.9 Q 1069.4 532.8 1055.3 553.7 Q 1041.1 574.5 1022.3 565.3 Q 1003.5 556.1 997.2 558.3 Q 990.9 560.4 972.9 543.9 Q 954.9 527.3 968.3 509.6 Q 981.7 491.9 992.1 490 Q 1002.6 488.1 1025.3 477.4 Q 1048 466.7 1048.2 480.8 Q 1048.5 495 1059 513.9 Z" fill="#E0A526" opacity="0.9"/><path d="M 998.9 219.3 Q 1003.9 244.2 993.1 252.8 Q 982.3 261.4 960.8 257.5 Q 939.3 253.5 917.7 238.7 Q 896.1 223.9 912.9 191.5 Q 929.8 159.2 961.9 176.8 Q 994 194.3 998.9 219.3 Z" fill="#B0202B" opacity="0.9"/><path d="M 595.1 279.8 Q 578.5 296.6 584.4 329.5 Q 590.3 362.5 547.4 363.7 Q 504.5 365 474 350 Q 443.5 335 456.1 307.9 Q 468.7 280.7 478.8 257.7 Q 488.9 234.7 512.8 237.7 Q 536.6 240.8 574.1 251.8 Q 611.6 262.9 595.1 279.8 Z" fill="#FFCD00" opacity="1"/><path d="M 1122.7 257.5 Q 1130.4 312.4 1110.1 355.6 Q 1089.8 398.7 1037.1 374.7 Q 984.5 350.7 966.8 330.3 Q 949.1 309.9 946.2 285.6 Q 943.3 261.3 981.8 219.6 Q 1020.2 177.9 1067.6 190.3 Q 1114.9 202.6 1122.7 257.5 Z" fill="#EF3340" opacity="0.9"/><path d="M 780.8 735 Q 796.8 769.2 757.7 810.1 Q 718.6 850.9 664.3 855.2 Q 609.9 859.6 587.6 800.8 Q 565.2 742 594.8 703.8 Q 624.3 665.5 665.2 636.3 Q 706.1 607.2 735.5 654 Q 764.8 700.9 780.8 735 Z" fill="#00776F" opacity="0.9"/><path d="M 874 305.7 Q 877.1 341.7 860.2 361.4 Q 843.3 381.1 819.8 370.5 Q 796.3 359.8 769.7 349.7 Q 743 339.6 752.1 322.3 Q 761.3 305 774.5 289.6 Q 787.8 274.2 799 267.5 Q 810.2 260.7 840.5 265.2 Q 870.8 269.7 874 305.7 Z" fill="#B0202B" opacity="0.9"/><path d="M 596.2 462.8 Q 606.4 494.1 606.3 515.9 Q 606.3 537.7 561.1 541.4 Q 515.9 545.1 487.1 546.9 Q 458.2 548.8 428.3 498.8 Q 398.4 448.8 421.9 434.8 Q 445.4 420.9 472.4 403.6 Q 499.3 386.2 535.3 374.7 Q 571.4 363.1 578.7 397.3 Q 586.1 431.4 596.2 462.8 Z" fill="#00A398" opacity="0.9"/><path d="M 1307.8 475.6 Q 1320.8 508.4 1263.3 537.5 Q 1205.8 566.7 1183.7 588.3 Q 1161.6 610 1136.1 591.8 Q 1110.7 573.5 1085.3 539.6 Q 1059.9 505.7 1054.2 463.8 Q 1048.4 421.9 1099.8 410.5 Q 1151.2 399.1 1174.7 389.7 Q 1198.2 380.3 1246.5 411.5 Q 1294.7 442.8 1307.8 475.6 Z" fill="#EF3340" opacity="0.9"/><path d="M 746.3 794 Q 742.6 824.5 719.8 860.8 Q 697 897.2 661.4 899.4 Q 625.9 901.5 599.8 869.4 Q 573.8 837.3 582.1 799.3 Q 590.5 761.3 629.5 750.9 Q 668.5 740.6 709.2 752.1 Q 749.9 763.5 746.3 794 Z" fill="#00A398" opacity="0.9"/><path d="M 460.7 499.6 Q 443.5 524.6 437.2 541.6 Q 430.8 558.6 411.8 574.9 Q 392.8 591.1 373.5 569.2 Q 354.1 547.2 353.9 529 Q 353.7 510.7 357.9 482.4 Q 362.1 454 387.7 461 Q 413.4 468 445.7 471.3 Q 477.9 474.7 460.7 499.6 Z" fill="#1B75BB" opacity="0.9"/><path d="M 667.2 143.1 Q 658.9 180.8 652.4 222.3 Q 645.8 263.9 580.8 259.6 Q 515.9 255.4 516.2 221.8 Q 516.6 188.2 526.2 165 Q 535.7 141.8 571.3 107.5 Q 606.9 73.3 641.1 89.3 Q 675.4 105.4 667.2 143.1 Z" fill="#1B75BB" opacity="0.9"/><circle cx="1312" cy="280" r="72" fill="#8A6435"/><rect width="1600" height="1000" filter="url(#g)"/></svg>