<svg xmlns="http://www.w3.org/2000/svg" viewBox="0 0 1800 1200" width="1800" height="1200"><defs><filter id="g"><feTurbulence type="fractalNoise" baseFrequency="0.9" numOctaves="2"/><feColorMatrix type="matrix" values="0 0 0 0 0  0 0 0 0 0  0 0 0 0 0  0 0 0 0.06 0"/></filter></defs><rect width="1800" height="1200" fill="#E8E4DA"/><g><rect x="72" y="96" width="468" height="504" fill="#E0A526"/><path d="M 409 398.5 Q 418.8 447.2 405.9 464.5 Q 393.1 481.7 341.4 490.4 Q 289.7 499.1 247.8 485.4 Q 205.9 471.7 204.7 424.7 Q 203.4 377.6 245 355.1 Q 286.7 332.5 307.2 324.2 Q 327.8 315.9 363.5 332.8 Q 399.3 349.7 409 398.5 Z" fill="#E0A526" opacity="0.9"/><path d="M 245.7 383.6 Q 262.2 424.7 220.7 469.8 Q 179.2 515 146.3 512.9 Q 113.4 510.9 95.3 475 Q 77.2 439.2 37.1 391.9 Q -3 344.6 41.6 340.1 Q 86.2 335.6 125.8 323 Q 165.4 310.5 197.2 326.5 Q 229.1 342.6 245.7 383.6 Z" fill="#F26B3A" opacity="0.9"/><path d="M 213.3 509.7 Q 204.2 537 221 575.4 Q 237.7 613.8 184.4 622.6 Q 131.1 631.4 102.8 619.5 Q 74.5 607.6 70.9 565.3 Q 67.4 523 76.6 502.4 Q 85.7 481.9 95.1 447.5 Q 104.5 413.2 152.5 429.6 Q 200.5 446.1 211.4 464.3 Q 222.4 482.4 213.3 509.7 Z" fill="#EF3340" opacity="0.9"/><path d="M 515.5 295.9 Q 523.8 323.8 512.4 366.7 Q 501 409.5 461.6 395.3 Q 422.2 381.1 375.8 382.8 Q 329.4 384.5 326.9 359.3 Q 324.5 334.1 309.3 284.6 Q 294 235.1 349 213.5 Q 404 192 435.5 184.9 Q 467 177.8 487.1 222.9 Q 507.1 268 515.5 295.9 Z" fill="#00A398" opacity="0.9"/><path d="M 408 72 Q 409.5 115 386.8 132.1 Q 364.2 149.2 327.8 178.2 Q 291.4 207.1 276.5 179.6 Q 261.5 152.1 229.7 130.2 Q 197.8 108.3 205 53.4 Q 212.2 -1.4 249.8 -6 Q 287.5 -10.6 323.3 -1.8 Q 359.2 7 382.8 18 Q 406.4 29 408 72 Z" fill="#14568A" opacity="0.9"/><rect x="72" y="96" width="468" height="504" fill="none" stroke="#141414" stroke-width="3"/><rect x="72" y="96" width="468" height="504" fill="none" stroke="#00000000"/></g><g><rect x="594" y="60" width="540" height="600" fill="#14568A"/><path d="M 835.8 157.4 Q 878.2 223.9 820.5 275.4 Q 762.7 326.8 712.7 284.6 Q 662.6 242.5 648.8 216.5 Q 635 190.4 653 137.7 Q 671 85 732.2 87.9 Q 793.3 90.8 835.8 157.4 Z" fill="#1B75BB" opacity="0.9"/><path d="M 977.4 514.2 Q 975.2 560.5 961.4 596 Q 947.6 631.5 922.5 619.5 Q 897.4 607.6 844.8 595 Q 792.3 582.4 795.6 551.4 Q 798.8 520.4 832.6 485.3 Q 866.4 450.2 887.7 450.7 Q 909.1 451.2 944.4 459.6 Q 979.6 467.9 977.4 514.2 Z" fill="#FFCD00" opacity="0.9"/><path d="M 859.4 240.2 Q 883.8 286.4 861.9 352 Q 840 417.7 775.6 378.1 Q 711.2 338.5 678 308.7 Q 644.9 278.9 677.6 212.2 Q 710.4 145.5 772.7 169.7 Q 835.1 194 859.4 240.2 Z" fill="#14568A" opacity="0.9"/><path d="M 945.3 554.1 Q 939.5 608.2 921.2 667.1 Q 902.9 726.1 840.6 720.4 Q 778.4 714.6 766.2 656.9 Q 754.1 599.2 737.8 556.3 Q 721.6 513.3 774 517 Q 826.5 520.6 888.8 510.3 Q 951.1 500 945.3 554.1 Z" fill="#B0202B" opacity="0.9"/><path d="M 1180.8 231.8 Q 1200.8 300.2 1147.7 352.6 Q 1094.6 405 1047.8 390.7 Q 1000.9 376.4 958.5 332.7 Q 916.1 288.9 966.9 239.7 Q 1017.7 190.5 1089.2 177 Q 1160.7 163.4 1180.8 231.8 Z" fill="#00A398" opacity="0.9"/><rect x="594" y="60" width="540" height="600" fill="none" stroke="#141414" stroke-width="3"/><rect x="594" y="60" width="540" height="600" fill="none" stroke="#00000000"/></g><g><rect x="1206" y="120" width="522" height="528" fill="#E0A526"/><path d="M 1716.1 426.1 Q 1735 479.9 1687.4 521.8 Q 1639.9 563.8 1552.5 554.1 Q 1465.1 544.3 1456.7 484.2 Q 1448.3 424 1490.9 368.5 Q 1533.5 312.9 1615.4 342.7 Q 1697.2 372.4 1716.1 426.1 Z" fill="#E0A526" opacity="0.9"/><path d="M 1372.5 130.8 Q 1357.1 200.3 1333.4 240.2 Q 1309.7 280 1260 277.6 Q 1210.4 275.2 1174.8 221.1 Q 1139.2 166.9 1152.7 123.6 Q 1166.3 80.4 1233.7 55.2 Q 1301.1 30.1 1344.5 45.7 Q 1388 61.3 1372.5 130.8 Z" fill="#F26B3A" opacity="0.9"/><path d="M 1569.3 394.2 Q 1582.8 440.5 1556.6 502.7 Q 1530.4 564.9 1467.1 557.3 Q 1403.8 549.6 1377.7 452.3 Q 1351.6 355 1404.9 313.7 Q 1458.3 272.3 1507 310.2 Q 1555.8 348 1569.3 394.2 Z" fill="#EF3340" opacity="0.9"/><path d="M 1484.8 156.2 Q 1494.6 181.5 1486.6 229.9 Q 1478.7 278.3 1412 288.6 Q 1345.3 298.9 1307.5 256.8 Q 1269.7 214.7 1260.7 153.3 Q 1251.7 92 1284 80.1 Q 1316.2 68.2 1387.4 37.3 Q 1458.6 6.4 1466.8 68.7 Q 1474.9 130.9 1484.8 156.2 Z" fill="#EF3340" opacity="0.9"/><path d="M 1333.5 533.6 Q 1347.7 584.9 1332.8 622.5 Q 1318 660.1 1247.8 677.5 Q 1177.6 694.9 1163.1 662.8 Q 1148.5 630.7 1125.5 602.8 Q 1102.6 574.9 1097.5 515.1 Q 1092.5 455.4 1135.1 440.5 Q 1177.7 425.6 1218 451.5 Q 1258.3 477.3 1288.8 479.8 Q 1319.3 482.4 1333.5 533.6 Z" fill="#EF3340" opacity="0.9"/><rect x="1206" y="120" width="522" height="528" fill="none" stroke="#141414" stroke-width="3"/><rect x="1206" y="120" width="522" height="528" fill="none" stroke="#00000000"/></g><g><rect x="108" y="672.0000000000001" width="396" height="360" fill="#F26B3A"/><path d="M 248.1 699.1 Q 255.6 729.7 236.5 748.8 Q 217.3 767.9 187.5 788 Q 157.6 808.1 147.4 776.8 Q 137.3 745.5 98.6 716 Q 59.9 686.5 95.7 675.1 Q 131.5 663.8 136.2 636.5 Q 141 609.1 175 614.6 Q 209.1 620.1 224.8 644.3 Q 240.6 668.5 248.1 699.1 Z" fill="#F1EFE8" opacity="0.9"/><path d="M 245.6 783.5 Q 261.9 823.3 230.9 848.7 Q 199.9 874.2 172 870 Q 144.1 865.7 116.6 860.3 Q 89.2 854.9 88.2 831.1 Q 87.2 807.3 85 774.6 Q 82.7 741.9 102.5 730.8 Q 122.3 719.7 141.3 711 Q 160.2 702.4 194.7 723.1 Q 229.3 743.8 245.6 783.5 Z" fill="#F26B3A" opacity="0.9"/><path d="M 554.2 848.1 Q 560 881.4 530.6 900 Q 501.3 918.6 461.9 930.6 Q 422.6 942.6 423.1 904.2 Q 423.6 865.8 429.3 831.2 Q 435.1 796.5 453.3 789.6 Q 471.5 782.7 509.9 798.8 Q 548.3 814.8 554.2 848.1 Z" fill="#EF3340" opacity="0.9"/><path d="M 305.8 992.5 Q 313.9 1030.9 277.2 1055.5 Q 240.4 1080.1 213.9 1102 Q 187.4 1123.9 168.7 1090.1 Q 150 1056.3 127.8 1033.6 Q 105.7 1011 127.4 996.9 Q 149.1 982.9 153.5 954.9 Q 157.9 927 193.3 946.5 Q 228.7 966 263.2 960.1 Q 297.7 954.1 305.8 992.5 Z" fill="#FFCD00" opacity="0.9"/><path d="M 278.9 903.3 Q 284.6 935.2 270.5 955.7 Q 256.4 976.3 245.1 991.9 Q 233.7 1007.5 203.8 973.6 Q 173.9 939.8 142.3 925.7 Q 110.6 911.5 141.6 893.2 Q 172.6 874.9 191.3 859.3 Q 209.9 843.8 240.2 827.4 Q 270.6 810.9 272 841.2 Q 273.3 871.4 278.9 903.3 Z" fill="#B0202B" opacity="0.9"/><rect x="108" y="672.0000000000001" width="396" height="360" fill="none" stroke="#141414" stroke-width="3"/><rect x="108" y="672.0000000000001" width="396" height="360" fill="none" stroke="#00000000"/></g><g><rect x="1296" y="696" width="432" height="360" fill="#B0202B"/><path d="M 1738.1 929.2 Q 1749.5 953 1733 988.2 Q 1716.4 1023.5 1686.6 1018.8 Q 1656.9 1014.2 1626.1 1003.2 Q 1595.3 992.2 1603.4 966.1 Q 1611.4 940 1621.7 903.7 Q 1631.9 867.5 1657.5 876.8 Q 1683.1 886 1704.9 895.7 Q 1726.7 905.5 1738.1 929.2 Z" fill="#00A398" opacity="0.9"/><path d="M 1777.1 705.7 Q 1772.6 749.9 1741.4 763 Q 1710.2 776.2 1689.4 782 Q 1668.7 787.8 1624.3 791.4 Q 1579.9 795 1591.3 765.3 Q 1602.7 735.5 1576.6 698.9 Q 1550.5 662.3 1600.1 657.9 Q 1649.7 653.5 1683.2 645.4 Q 1716.7 637.3 1749.1 649.4 Q 1781.6 661.4 1777.1 705.7 Z" fill="#B0202B" opacity="0.9"/><path d="M 1645.3 1000.6 Q 1682.1 1033.3 1660.4 1080.2 Q 1638.7 1127.2 1580.8 1104.2 Q 1522.8 1081.3 1501.4 1061.8 Q 1480 1042.4 1469.8 989 Q 1459.6 935.7 1513.2 932.1 Q 1566.7 928.6 1587.7 948.3 Q 1608.6 968 1645.3 1000.6 Z" fill="#14568A" opacity="0.9"/><path d="M 1686 833 Q 1676.5 866.3 1662.3 902.2 Q 1648.1 938.1 1597.2 928.7 Q 1546.4 919.4 1512.4 892 Q 1478.5 864.6 1510.7 840.6 Q 1542.9 816.6 1565.7 783.3 Q 1588.4 750 1642 774.9 Q 1695.5 799.7 1686 833 Z" fill="#FFCD00" opacity="0.9"/><path d="M 1515.2 770.4 Q 1523.1 814.4 1471.1 839.4 Q 1419 864.4 1371.6 878.9 Q 1324.1 893.4 1309.9 862.1 Q 1295.6 830.8 1311.6 792.9 Q 1327.7 754.9 1374.4 716.7 Q 1421.1 678.6 1464.2 702.5 Q 1507.3 726.4 1515.2 770.4 Z" fill="#FFCD00" opacity="0.9"/><rect x="1296" y="696" width="432" height="360" fill="none" stroke="#141414" stroke-width="3"/><rect x="1296" y="696" width="432" height="360" fill="none" stroke="#00000000"/></g><g fill="#26221E"><ellipse cx="900" cy="408.00000000000006" rx="81" ry="90"/><path d="M 720 552 Q 900 456 1080 552 L 1134 1200 L 666 1200 Z"/><path d="M 1044 600 Q 1188 624 1242 528" stroke="#26221E" stroke-width="54" fill="none" stroke-linecap="round"/></g><line x1="1242" y1="528" x2="1278" y2="456" stroke="#8A5A2B" stroke-width="14.4"/><rect width="1800" height="1200" filter="url(#g)"/></svg>