<svg xmlns="http://www.w3.org/2000/svg" viewBox="0 0 2000 700" width="2000" height="700"><defs><filter id="g"><feTurbulence type="fractalNoise" baseFrequency="0.9" numOctaves="2"/><feColorMatrix type="matrix" values="0 0 0 0 0  0 0 0 0 0  0 0 0 0 0  0 0 0 0.05 0"/></filter></defs><rect width="2000" height="700" fill="#EF3340"/><path d="M 767.6 65.7 Q 782.9 144.2 686 214.5 Q 589 284.7 545.6 366.8 Q 502.3 448.8 394.3 370.6 Q 286.3 292.4 306.1 173.7 Q 325.8 55 352.3 -48.1 Q 378.8 -151.3 503.2 -149.4 Q 627.7 -147.5 690 -80.2 Q 752.4 -12.8 767.6 65.7 Z" fill="#14568A" opacity="0.8"/><path d="M 1318.5 426.7 Q 1285.3 703.7 1172.3 837.8 Q 1059.3 971.9 873.5 944.4 Q 687.7 916.8 652.7 804.1 Q 617.6 691.4 574.8 563 Q 532 434.7 614.2 207.5 Q 696.3 -19.6 826.6 53.5 Q 956.9 126.6 1154.3 138.2 Q 1351.6 149.7 1318.5 426.7 Z" fill="#1B75BB" opacity="0.9"/><path d="M 300.6 325.3 Q 352.9 434.1 288.4 598.8 Q 223.9 763.5 77.3 691.2 Q -69.4 618.9 -160.4 634.7 Q -251.4 650.5 -309.9 494.5 Q -368.5 338.6 -228 232.4 Q -87.5 126.2 47.6 99.3 Q 182.7 72.5 215.5 144.5 Q 248.3 216.4 300.6 325.3 Z" fill="#F26B3A" opacity="0.8"/><path d="M 941 133.3 Q 1039.1 335.4 808.3 465.5 Q 577.5 595.6 467 771.2 Q 356.6 946.8 196.9 709.8 Q 37.1 472.9 -40.4 315 Q -118 157.1 4.9 40 Q 127.7 -77 334.3 -207.2 Q 540.9 -337.3 691.9 -203 Q 842.9 -68.8 941 133.3 Z" fill="#00A398" opacity="0.8"/><path d="M 468.7 141.4 Q 380.6 297 392.7 493.8 Q 404.7 690.6 130.8 730.5 Q -143.1 770.4 -262.3 610.5 Q -381.4 450.5 -373 333.8 Q -364.5 217.1 -415.9 -66.7 Q -467.4 -350.6 -254.4 -283.9 Q -41.5 -217.2 65.3 -185.6 Q 172.1 -154 364.4 -84.1 Q 556.7 -14.2 468.7 141.4 Z" fill="#EF3340" opacity="0.8"/><path d="M 1433.5 410.1 Q 1644.6 538.7 1408.7 640.7 Q 1172.8 742.8 888.2 937.9 Q 603.6 1133 518.7 929.1 Q 433.8 725.3 396.8 504.4 Q 359.8 283.4 501.8 118.5 Q 643.9 -46.4 790.4 27.2 Q 936.9 100.7 1079.7 191.1 Q 1222.4 281.5 1433.5 410.1 Z" fill="#B0202B" opacity="0.9"/><path d="M 677.1 3.7 Q 649.8 156.8 562.8 208.3 Q 475.8 259.8 380.8 211.4 Q 285.8 163.1 194.5 109.5 Q 103.2 56 222.5 -67.7 Q 341.7 -191.3 523.1 -170.4 Q 704.4 -149.4 677.1 3.7 Z" fill="#E0A526" opacity="0.9"/><path d="M 1810.5 402.7 Q 2052.1 588.6 1713.4 1012.3 Q 1374.7 1436 1070 1347.9 Q 765.2 1259.8 743.2 1008.3 Q 721.2 756.7 792.4 461.8 Q 863.6 166.8 1047.9 102.4 Q 1232.2 38 1400.5 127.4 Q 1568.8 216.9 1810.5 402.7 Z" fill="#14568A" opacity="0.9"/><path d="M 1794.1 341.6 Q 1816.5 406.9 2106.7 559" fill="none" stroke="#FFCD00" stroke-width="71" stroke-linecap="round" opacity="0.9"/><path d="M 1756.2 312.4 Q 1682.6 359.7 1684.6 554.7" fill="none" stroke="#E0A526" stroke-width="42" stroke-linecap="round" opacity="0.9"/><path d="M 638.9 14.4 Q 906.8 -76.4 1115 -222.1" fill="none" stroke="#14568A" stroke-width="80" stroke-linecap="round" opacity="0.9"/><path d="M 1734.3 249.8 Q 1673.3 233.5 1117.8 252.7" fill="none" stroke="#FFCD00" stroke-width="19.2" stroke-linecap="round" opacity="0.7"/><path d="M 1413.7 374.9 Q 1658.7 462.3 2180.1 461.2" fill="none" stroke="#F1EFE8" stroke-width="41" stroke-linecap="round" opacity="0.8"/><path d="M 1017.2 43.9 Q 1280.5 51.5 1122.4 233.8" fill="none" stroke="#FFCD00" stroke-width="40.4" stroke-linecap="round" opacity="0.8"/><path d="M 119.1 631.4 Q -250.2 598.7 -72.4 477.3" fill="none" stroke="#00A398" stroke-width="55.6" stroke-linecap="round" opacity="0.9"/><path d="M 924.8 316.1 Q 517.1 138.6 435.8 124.6" fill="none" stroke="#EF3340" stroke-width="87.6" stroke-linecap="round" opacity="0.7"/><path d="M 139.3 499.8 Q 27.2 378.3 -58.8 277.6" fill="none" stroke="#EF3340" stroke-width="32.4" stroke-linecap="round" opacity="0.9"/><path d="M 432.8 426.1 Q 224.4 428.6 -86.5 191.8" fill="none" stroke="#E0A526" stroke-width="81.5" stroke-linecap="round" opacity="0.7"/><rect width="2000" height="700" filter="url(#g)"/></svg>