<svg xmlns="http://www.w3.org/2000/svg" viewBox="0 0 2000 700" width="2000" height="700"><defs><filter id="g"><feTurbulence type="fractalNoise" baseFrequency="0.9" numOctaves="2"/><feColorMatrix type="matrix" values="0 0 0 0 0  0 0 0 0 0  0 0 0 0 0  0 0 0 0.05 0"/></filter></defs><rect width="2000" height="700" fill="#1B75BB"/><path d="M 522 246.2 Q 545 516.5 354.4 574.1 Q 163.9 631.8 -34.3 595.8 Q -232.4 559.9 -297.7 376.5 Q -363 193 -245.1 36.3 Q -127.3 -120.5 185.9 -72.3 Q 499 -24.1 522 246.2 Z" fill="#00776F" opacity="0.8"/><path d="M 2194.7 550.6 Q 2346.4 771.7 2189.3 815.2 Q 2032.2 858.6 1881.2 1074.7 Q 1730.1 1290.7 1532.8 1127.5 Q 1335.5 964.3 1138.2 756.9 Q 940.8 549.5 1033.1 242.9 Q 1125.4 -63.7 1351 -181.1 Q 1576.6 -298.6 1720.1 -157.7 Q 1863.6 -16.7 1953.3 156.4 Q 2042.9 329.4 2194.7 550.6 Z" fill="#F26B3A" opacity="0.9"/><path d="M 1224.4 60.1 Q 1267.1 272.4 1145.6 363.2 Q 1024.1 454.1 915.4 409.8 Q 806.6 365.5 582.6 343.8 Q 358.6 322 302.5 139.2 Q 246.3 -43.6 279.1 -137.6 Q 311.9 -231.5 469.5 -380.4 Q 627.1 -529.2 884.8 -504.7 Q 1142.5 -480.2 1162.1 -316.1 Q 1181.8 -152.1 1224.4 60.1 Z" fill="#EF3340" opacity="0.9"/><path d="M 2003.2 157.8 Q 1984.8 480.6 1804.8 706.5 Q 1624.8 932.4 1320.6 775.7 Q 1016.5 619 972.6 368.3 Q 928.8 117.5 1161.5 -23.5 Q 1394.2 -164.4 1707.9 -164.8 Q 2021.6 -165.1 2003.2 157.8 Z" fill="#1B75BB" opacity="0.9"/><path d="M 1604.9 98.6 Q 1606.3 239.8 1491.6 423.4 Q 1376.9 606.9 1279.9 584.5 Q 1183 562.1 965.3 617.7 Q 747.5 673.4 781.8 427.1 Q 816.2 180.7 735.5 19 Q 654.8 -142.7 822.7 -230.9 Q 990.5 -319.1 1099.5 -259.9 Q 1208.5 -200.8 1406 -121.7 Q 1603.5 -42.6 1604.9 98.6 Z" fill="#E0A526" opacity="0.9"/><path d="M 1286.9 621.1 Q 1499.9 786.5 1193.8 882.9 Q 887.8 979.4 720.2 998.7 Q 552.6 1017.9 392.5 847 Q 232.5 676 328.8 484.8 Q 425.2 293.5 582.8 270.6 Q 740.3 247.7 907.2 351.7 Q 1074 455.7 1286.9 621.1 Z" fill="#B0202B" opacity="0.8"/><path d="M 1819.5 49.2 Q 1652.3 256.7 1655 389.3 Q 1657.8 521.8 1462.8 710.3 Q 1267.9 898.8 986.3 895.5 Q 704.8 892.2 650 478.5 Q 595.3 64.9 618.1 -59.2 Q 640.9 -183.3 929 -267.1 Q 1217 -350.8 1363.4 -379.9 Q 1509.9 -409 1748.3 -283.7 Q 1986.7 -158.4 1819.5 49.2 Z" fill="#14568A" opacity="0.9"/><path d="M 464.7 305.5 Q 470.3 484.1 339.7 517.2 Q 209.2 550.4 124.1 551.9 Q 38.9 553.3 20.3 489.4 Q 1.7 425.5 -66 296.1 Q -133.7 166.7 -3.1 101.5 Q 127.6 36.2 293.4 81.5 Q 459.2 126.9 464.7 305.5 Z" fill="#00A398" opacity="0.9"/><path d="M 1025.5 31.3 Q 1034.7 240.9 943 303.5 Q 851.4 366 671.9 452.9 Q 492.5 539.8 400.1 403.7 Q 307.6 267.7 366.2 65.1 Q 424.8 -137.5 520.8 -228 Q 616.8 -318.4 816.6 -248.3 Q 1016.3 -178.3 1025.5 31.3 Z" fill="#00A398" opacity="0.8"/><path d="M 1014.7 114.7 Q 1028.8 501.2 991.2 727.4 Q 953.6 953.6 627.4 801.2 Q 301.1 648.8 130.9 430.5 Q -39.3 212.1 204.6 -38.9 Q 448.6 -289.9 724.7 -280.9 Q 1000.7 -271.8 1014.7 114.7 Z" fill="#1B75BB" opacity="0.9"/><path d="M 1182 38.5 Q 1151.3 187 1109 237.4 Q 1066.7 287.9 971.6 392.8 Q 876.4 497.7 714.5 470.2 Q 552.6 442.7 576.3 275.9 Q 599.9 109.1 587.5 -4.7 Q 575.1 -118.5 702.6 -191.4 Q 830.1 -264.4 916 -161.2 Q 1001.8 -57.9 1107.3 -83.9 Q 1212.7 -109.9 1182 38.5 Z" fill="#FFCD00" opacity="0.9"/><path d="M 196.1 671.6 Q 577 734.8 292.8 913.9" fill="none" stroke="#FFCD00" stroke-width="18.7" stroke-linecap="round" opacity="0.8"/><path d="M 772.7 272.8 Q 522.3 255 1002.6 13.7" fill="none" stroke="#EF3340" stroke-width="69.5" stroke-linecap="round" opacity="0.7"/><path d="M 1734.7 366.2 Q 2079.6 228 2464.6 210.6" fill="none" stroke="#FFCD00" stroke-width="41" stroke-linecap="round" opacity="0.7"/><path d="M 642.5 491 Q 1400 235.3 1394.3 235.7" fill="none" stroke="#00776F" stroke-width="34.1" stroke-linecap="round" opacity="0.8"/><path d="M 683.4 506.8 Q 1315.3 253.2 1322.9 271.1" fill="none" stroke="#00A398" stroke-width="67" stroke-linecap="round" opacity="0.8"/><path d="M 191.2 295.6 Q 396.2 359.4 559.5 491.7" fill="none" stroke="#00776F" stroke-width="17.1" stroke-linecap="round" opacity="0.7"/><path d="M 789.1 389.6 Q 836.2 295.9 1152.8 324.1" fill="none" stroke="#F1EFE8" stroke-width="33.9" stroke-linecap="round" opacity="0.8"/><path d="M 1745.9 113.8 Q 1985.6 53.6 1514.8 111.7" fill="none" stroke="#FFCD00" stroke-width="16.1" stroke-linecap="round" opacity="0.7"/><path d="M 1611.8 120.6 Q 1334.6 179.5 1040.8 308.8" fill="none" stroke="#FFCD00" stroke-width="64.6" stroke-linecap="round" opacity="0.8"/><path d="M 828.6 334.9 Q 1002 401.9 1259 468.3" fill="none" stroke="#1B75BB" stroke-width="75.3" stroke-linecap="round" opacity="0.8"/><rect width="2000" height="700" filter="url(#g)"/></svg>