<svg xmlns="http://www.w3.org/2000/svg" viewBox="0 0 2000 700" width="2000" height="700"><defs><filter id="g"><feTurbulence type="fractalNoise" baseFrequency="0.9" numOctaves="2"/><feColorMatrix type="matrix" values="0 0 0 0 0  0 0 0 0 0  0 0 0 0 0  0 0 0 0.05 0"/></filter></defs><rect width="2000" height="700" fill="#00A398"/><path d="M 1346.6 404 Q 1437.6 554.1 1368.8 650.5 Q 1299.9 746.9 1111.9 727 Q 923.9 707.1 777.8 652.7 Q 631.7 598.4 557.4 425.6 Q 483.1 252.9 638 131.7 Q 792.9 10.5 961.9 -58 Q 1130.9 -126.5 1193.2 63.7 Q 1255.5 254 1346.6 404 Z" fill="#EF3340" opacity="0.9"/><path d="M 2128.6 364.7 Q 2307.2 762.3 2008 774.3 Q 1708.8 786.2 1497.9 776.7 Q 1286.9 767.2 1170.8 604.7 Q 1054.6 442.2 1256.7 223.6 Q 1458.8 5 1704.4 -14 Q 1949.9 -33 2128.6 364.7 Z" fill="#F26B3A" opacity="0.9"/><path d="M 484.7 159.1 Q 590.8 251 493.2 322.6 Q 395.7 394.2 276 389.4 Q 156.3 384.7 65.1 389.2 Q -26.1 393.7 -68.5 323.1 Q -110.8 252.5 -102.9 64.7 Q -94.9 -123.1 -3.5 -160.7 Q 87.9 -198.3 177.3 -106.3 Q 266.8 -14.2 322.7 26.5 Q 378.6 67.2 484.7 159.1 Z" fill="#E0A526" opacity="0.9"/><path d="M 571.3 668.2 Q 592.8 818.9 483.3 935.1 Q 373.9 1051.2 208 1009.4 Q 42.1 967.5 -20.8 817.9 Q -83.7 668.4 57 522.6 Q 197.7 376.9 373.7 447.2 Q 549.8 517.6 571.3 668.2 Z" fill="#E0A526" opacity="1"/><path d="M 689.5 -129 Q 909.8 173.1 611.4 427.7 Q 313 682.3 -104.2 674.5 Q -521.5 666.6 -608.2 319.6 Q -694.9 -27.5 -323.3 -435.2 Q 48.3 -842.9 258.8 -637 Q 469.2 -431.1 689.5 -129 Z" fill="#00A398" opacity="0.8"/><path d="M 673 463.4 Q 808 642.5 685.4 805.1 Q 562.7 967.7 379.4 884.6 Q 196.1 801.5 40.6 588.4 Q -115 375.2 75.5 342.9 Q 266 310.5 402 297.4 Q 538.1 284.4 673 463.4 Z" fill="#B0202B" opacity="1"/><path d="M 2166.8 102.1 Q 2203.1 154.9 2107.6 217.1 Q 2012.1 279.4 1981 308.2 Q 1949.8 337 1887.3 265.7 Q 1824.8 194.5 1793 162.6 Q 1761.3 130.7 1744.9 70.3 Q 1728.6 9.9 1819.9 -38.8 Q 1911.1 -87.5 1977.1 -51.2 Q 2043.2 -14.9 2086.8 17.2 Q 2130.4 49.3 2166.8 102.1 Z" fill="#00776F" opacity="0.8"/><path d="M 2293.3 642.6 Q 2388.8 810.6 2298.7 1008.4 Q 2208.5 1206.2 2062.9 1179.1 Q 1917.4 1151.9 1701.1 992.7 Q 1484.9 833.5 1474.8 666 Q 1464.8 498.5 1587.4 439 Q 1710 379.4 1900.2 274.7 Q 2090.4 170.1 2144.1 322.3 Q 2197.8 474.6 2293.3 642.6 Z" fill="#FFCD00" opacity="0.8"/><path d="M 1311.4 324.8 Q 1389.5 630.7 1264 938.8 Q 1138.6 1246.9 656.9 1000.3 Q 175.2 753.6 41.3 572.1 Q -92.7 390.5 241.3 174.5 Q 575.2 -41.5 904.3 -11.3 Q 1233.3 18.8 1311.4 324.8 Z" fill="#00A398" opacity="1"/><path d="M 813.8 156.9 Q 870.4 277.8 700.1 438.6 Q 529.9 599.4 253.4 666.1 Q -23.1 732.8 -133.5 583.9 Q -243.9 434.9 -314.3 230.1 Q -384.7 25.2 -167.8 -56.4 Q 49 -138.1 139 -121.4 Q 228.9 -104.7 493.1 -34.4 Q 757.2 36 813.8 156.9 Z" fill="#F1EFE8" opacity="0.9"/><path d="M 287.5 248.2 Q 212.1 131.1 389.2 16.2" fill="none" stroke="#F1EFE8" stroke-width="79.7" stroke-linecap="round" opacity="0.6"/><path d="M 964.6 318.6 Q 962.8 252.1 1395.1 69.5" fill="none" stroke="#EF3340" stroke-width="69.1" stroke-linecap="round" opacity="0.8"/><path d="M 1467.3 92.7 Q 1835 -113.3 1836.9 -52.7" fill="none" stroke="#14568A" stroke-width="27.7" stroke-linecap="round" opacity="0.6"/><path d="M 1835.6 696.1 Q 2188.5 666 2214.9 437.9" fill="none" stroke="#14568A" stroke-width="51.9" stroke-linecap="round" opacity="0.7"/><path d="M 947.5 563 Q 705.1 619.1 168.9 824.7" fill="none" stroke="#14568A" stroke-width="22.4" stroke-linecap="round" opacity="0.9"/><path d="M 1544.8 376.9 Q 1821 398 1466.5 418" fill="none" stroke="#FFCD00" stroke-width="43.1" stroke-linecap="round" opacity="0.7"/><path d="M 1703.9 310.8 Q 1927.5 464.3 1830.5 474.6" fill="none" stroke="#E0A526" stroke-width="78.5" stroke-linecap="round" opacity="0.7"/><path d="M 193.1 16.5 Q -291.7 -55 -99.9 59.3" fill="none" stroke="#B0202B" stroke-width="25.2" stroke-linecap="round" opacity="0.9"/><path d="M 593.7 393.4 Q 1239.5 451.1 1217.9 263.9" fill="none" stroke="#FFCD00" stroke-width="73.4" stroke-linecap="round" opacity="0.8"/><path d="M 646 361.8 Q 682.3 362.5 132.3 509.4" fill="none" stroke="#E0A526" stroke-width="76.1" stroke-linecap="round" opacity="0.7"/><path d="M 806.8 7.5 Q 953.9 -129.9 1225.5 -104.4" fill="none" stroke="#EF3340" stroke-width="55.8" stroke-linecap="round" opacity="0.7"/><path d="M 206.7 569.3 Q 14.3 343 -71.3 297.4" fill="none" stroke="#B0202B" stroke-width="30.8" stroke-linecap="round" opacity="0.9"/><path d="M 371.5 595.1 Q 339 661.2 -421.1 454.3" fill="none" stroke="#FFCD00" stroke-width="23.7" stroke-linecap="round" opacity="0.9"/><path d="M 1797.1 51.2 Q 1768.7 -113.9 2498.9 -161.6" fill="none" stroke="#00776F" stroke-width="48.1" stroke-linecap="round" opacity="0.9"/><path d="M 866.5 70.3 Q 161.2 154.4 217 162.1" fill="none" stroke="#EF3340" stroke-width="67.6" stroke-linecap="round" opacity="0.6"/><rect width="2000" height="700" filter="url(#g)"/></svg>