<svg xmlns="http://www.w3.org/2000/svg" viewBox="0 0 1400 1400" width="1400" height="1400"><defs><filter id="g"><feTurbulence type="fractalNoise" baseFrequency="0.9" numOctaves="2"/><feColorMatrix type="matrix" values="0 0 0 0 0  0 0 0 0 0  0 0 0 0 0  0 0 0 0.05 0"/></filter><linearGradient id="gl" x1="0" y1="0" x2="0" y2="1"><stop offset="0" stop-color="#7B8577"/><stop offset="1" stop-color="#5C4B3A"/></linearGradient></defs><rect width="1400" height="1400" fill="#EDE9DF"/><rect y="1092" width="1400" height="308" fill="#DCD5C6"/><path d="M 307.99999999999994 630 C 280 1008, 504 1120, 700 1120 C 896 1120, 1120 1008, 1092 630 Z" fill="url(#gl)"/><ellipse cx="700" cy="630" rx="392.00000000000006" ry="63" fill="#33291F"/><path d="M 488.3 420.9 q -7.2 222.1 0 154" stroke="#A67B4F" stroke-width="16.8" fill="none" opacity="0.6" stroke-linecap="round"/><path d="M 857.3 824.7 q 3.1 153.8 0 271.9" stroke="#3E5C55" stroke-width="16.8" fill="none" opacity="0.6" stroke-linecap="round"/><path d="M 931.2 424.9 q 3.7 170.1 0 194.6" stroke="#8E9B8B" stroke-width="16.8" fill="none" opacity="0.6" stroke-linecap="round"/><path d="M 662.2 420.4 q 0.3 144.8 0 195.7" stroke="#8E9B8B" stroke-width="16.8" fill="none" opacity="0.6" stroke-linecap="round"/><path d="M 887 747.8 q -3.2 219.3 0 194.3" stroke="#A67B4F" stroke-width="16.8" fill="none" opacity="0.6" stroke-linecap="round"/><path d="M 602.1 632.9 q -5.6 209.1 0 229.7" stroke="#8E9B8B" stroke-width="16.8" fill="none" opacity="0.6" stroke-linecap="round"/><path d="M 503.9 716.1 q -4.6 171.7 0 270.3" stroke="#3E5C55" stroke-width="16.8" fill="none" opacity="0.6" stroke-linecap="round"/><ellipse cx="700" cy="1134" rx="364" ry="42" fill="#00000022"/><rect width="1400" height="1400" filter="url(#g)"/></svg>