<svg xmlns="http://www.w3.org/2000/svg" viewBox="0 0 1400 933" width="1400" height="933"><defs><filter id="g"><feTurbulence type="fractalNoise" baseFrequency="0.9" numOctaves="2"/><feColorMatrix type="matrix" values="0 0 0 0 0  0 0 0 0 0  0 0 0 0 0  0 0 0 0.05 0"/></filter></defs><rect width="1400" height="933" fill="#EF3340"/><path d="M 1378.8 105.5 Q 1406.9 164.4 1380.6 218.4 Q 1354.4 272.4 1289.9 329.3 Q 1225.3 386.3 1173.7 309.2 Q 1122.1 232.1 1083.2 139.5 Q 1044.4 46.9 1114.8 32.8 Q 1185.1 18.6 1226.8 -23.2 Q 1268.5 -64.9 1309.6 -9.1 Q 1350.7 46.7 1378.8 105.5 Z" fill="#EF3340" opacity="0.8"/><path d="M 970.8 612.8 Q 1021.7 698.7 965.5 865 Q 909.3 1031.3 707.7 1059 Q 506.1 1086.6 490.4 934.9 Q 474.7 783.2 417.3 721.6 Q 360 660.1 270.9 558.3 Q 181.9 456.5 400.4 428.2 Q 619 399.9 670 368.8 Q 721.1 337.7 820.5 432.3 Q 919.9 527 970.8 612.8 Z" fill="#E0A526" opacity="0.8"/><path d="M 730.7 751.6 Q 785.9 872.7 693.3 972.2 Q 600.8 1071.7 437.6 1055.5 Q 274.3 1039.4 177 900.7 Q 79.6 762.1 171.3 572.8 Q 263.1 383.6 469.3 507 Q 675.6 630.4 730.7 751.6 Z" fill="#FFCD00" opacity="0.9"/><path d="M 971.2 554.5 Q 985.8 605.3 970.7 716.9 Q 955.6 828.4 857.6 845.2 Q 759.7 862 646 798.4 Q 532.4 734.8 558.8 593.5 Q 585.2 452.1 688 376.7 Q 790.8 301.4 873.7 402.5 Q 956.6 503.7 971.2 554.5 Z" fill="#00A398" opacity="0.8"/><path d="M 727.2 910.9 Q 702.2 985.3 626.9 1085.6 Q 551.5 1185.9 492.3 1139.7 Q 433.1 1093.5 315.5 1107 Q 197.9 1120.6 220.3 987.2 Q 242.8 853.9 296.7 716.8 Q 350.6 579.8 473.3 609.7 Q 595.9 639.6 674.1 738 Q 752.2 836.5 727.2 910.9 Z" fill="#E0A526" opacity="0.8"/><path d="M 537.2 526.4 Q 585.6 674.3 442.4 776.6 Q 299.1 879 229.6 849.8 Q 160.2 820.6 103.9 695.5 Q 47.7 570.4 88.5 489.1 Q 129.4 407.7 309.2 393.1 Q 488.9 378.5 537.2 526.4 Z" fill="#00776F" opacity="0.8"/><path d="M 1457.7 600.4 Q 1473.7 811 1376.2 889.6 Q 1278.6 968.3 1153.7 995.7 Q 1028.7 1023 913.3 1028.1 Q 797.8 1033.1 714 904.2 Q 630.2 775.3 651.4 551.7 Q 672.7 328 877.7 190 Q 1082.8 52 1244.2 72.9 Q 1405.7 93.8 1423.6 241.8 Q 1441.6 389.8 1457.7 600.4 Z" fill="#F1EFE8" opacity="0.8"/><path d="M 296.5 40.6 Q 282 76.9 303.5 164.1 Q 325 251.3 240.6 216.4 Q 156.3 181.5 90.3 154.9 Q 24.2 128.3 20.1 90.6 Q 16 52.8 43.8 4.1 Q 71.6 -44.6 103.9 -103.9 Q 136.1 -163.2 181.1 -178.6 Q 226 -194 268.5 -94.9 Q 311 4.3 296.5 40.6 Z" fill="#FFCD00" opacity="0.8"/><path d="M 1357.6 592 Q 1272.7 534.3 1286.3 360.4" fill="none" stroke="#F26B3A" stroke-width="26.4" stroke-linecap="round" opacity="0.8"/><path d="M 512.1 194 Q 863 450.1 679.8 504.8" fill="none" stroke="#B0202B" stroke-width="44.1" stroke-linecap="round" opacity="0.8"/><path d="M 781.7 650.7 Q 947.9 737.4 939.6 725.2" fill="none" stroke="#FFCD00" stroke-width="55.9" stroke-linecap="round" opacity="0.8"/><path d="M 938.1 910.3 Q 603.8 1043 500.8 914.9" fill="none" stroke="#E0A526" stroke-width="50.4" stroke-linecap="round" opacity="0.8"/><path d="M 1281.9 551.6 Q 1253.2 590.6 1307.7 284.2" fill="none" stroke="#F26B3A" stroke-width="13.9" stroke-linecap="round" opacity="0.8"/><path d="M 425.9 603.7 Q 763.5 604.8 775.6 415.9" fill="none" stroke="#00776F" stroke-width="31.1" stroke-linecap="round" opacity="0.8"/><path d="M 1138.8 316.7 Q 748.9 164.8 694.8 61.9" fill="none" stroke="#1B75BB" stroke-width="61.9" stroke-linecap="round" opacity="0.9"/><path d="M 1270.1 134.4 Q 1550 294 1278.1 323.9" fill="none" stroke="#B0202B" stroke-width="44.4" stroke-linecap="round" opacity="0.7"/><path d="M 294.4 820.9 Q 476.4 1095.9 791.2 1164.5" fill="none" stroke="#B0202B" stroke-width="51.8" stroke-linecap="round" opacity="0.9"/><path d="M 629.2 769.2 Q 606.5 656.8 579.5 851.4" fill="none" stroke="#E0A526" stroke-width="49.4" stroke-linecap="round" opacity="0.7"/><path d="M 278.8 241.6 Q -88 313.1 30.4 406.7" fill="none" stroke="#F26B3A" stroke-width="18.1" stroke-linecap="round" opacity="0.9"/><path d="M 1307.1 92.4 Q 1348.5 330.5 1399.1 255.5" fill="none" stroke="#FFCD00" stroke-width="61.8" stroke-linecap="round" opacity="0.8"/><path d="M 177.5 649.7 Q 522.8 774.8 652.9 875.8" fill="none" stroke="#FFCD00" stroke-width="58.5" stroke-linecap="round" opacity="0.6"/><path d="M 622.3 736.1 Q 1084.7 866.2 994.9 629.8" fill="none" stroke="#B0202B" stroke-width="29.9" stroke-linecap="round" opacity="0.8"/><rect width="1400" height="933" filter="url(#g)"/></svg>