<svg xmlns="http://www.w3.org/2000/svg" viewBox="0 0 1400 933" width="1400" height="933"><defs><filter id="g"><feTurbulence type="fractalNoise" baseFrequency="0.9" numOctaves="2"/><feColorMatrix type="matrix" values="0 0 0 0 0  0 0 0 0 0  0 0 0 0 0  0 0 0 0.05 0"/></filter></defs><rect width="1400" height="933" fill="#EF3340"/><path d="M 1035.6 -16.4 Q 1232.4 295 982.6 339.7 Q 732.7 384.3 471.1 404.2 Q 209.5 424.2 127.9 192.3 Q 46.2 -39.6 232.7 -203.5 Q 419.1 -367.5 629 -347.7 Q 838.8 -327.9 1035.6 -16.4 Z" fill="#F26B3A" opacity="0.9"/><path d="M 700.6 518.9 Q 679.7 664.9 655.9 764.3 Q 632.2 863.7 494.3 773.3 Q 356.3 682.8 328.4 600.2 Q 300.5 517.5 342.6 388.1 Q 384.8 258.6 553.2 315.8 Q 721.6 372.9 700.6 518.9 Z" fill="#1B75BB" opacity="0.8"/><path d="M 1215.2 797.4 Q 1301.9 858.4 1172.3 963.6 Q 1042.7 1068.8 913.8 1037.6 Q 784.8 1006.4 717.5 941.5 Q 650.2 876.5 691.7 734 Q 733.3 591.5 814.6 596.7 Q 895.9 601.8 1012.1 669.1 Q 1128.4 736.5 1215.2 797.4 Z" fill="#1B75BB" opacity="0.9"/><path d="M 1434.2 712.2 Q 1429.9 834.1 1388.9 926.1 Q 1347.9 1018.2 1260.6 1056.3 Q 1173.3 1094.4 1124.5 973.3 Q 1075.6 852.1 1075.2 749.9 Q 1074.8 647.7 1177.5 642.6 Q 1280.1 637.6 1359.3 614 Q 1438.5 590.4 1434.2 712.2 Z" fill="#1B75BB" opacity="0.8"/><path d="M 269.6 160 Q 285 244.6 213.7 422.8 Q 142.3 600.9 64.4 528.4 Q -13.5 455.9 -134.7 465.9 Q -255.9 475.9 -224.4 337.1 Q -192.8 198.4 -166.7 85.7 Q -140.6 -27.1 -9.6 -38.5 Q 121.4 -50 187.8 12.7 Q 254.1 75.4 269.6 160 Z" fill="#1B75BB" opacity="0.9"/><path d="M 1337.8 576.1 Q 1281.8 839.2 1237 1009 Q 1192.2 1178.8 849.9 1094.6 Q 507.5 1010.4 460 849.8 Q 412.5 689.2 644.7 469.5 Q 876.9 249.9 1135.3 281.5 Q 1393.7 313 1337.8 576.1 Z" fill="#E0A526" opacity="0.9"/><path d="M 1748.7 230.2 Q 1761.4 385.4 1683.9 501.8 Q 1606.4 618.2 1396.4 664.3 Q 1186.4 710.3 1134.7 585.3 Q 1083 460.2 913.5 364 Q 743.9 267.8 790.8 172.1 Q 837.6 76.3 1006 -69.6 Q 1174.3 -215.5 1268.3 -185.5 Q 1362.3 -155.6 1549.2 -40.3 Q 1736.1 75 1748.7 230.2 Z" fill="#E0A526" opacity="0.9"/><path d="M 830.1 759.2 Q 858.8 859 798.2 1000.7 Q 737.5 1142.4 596.1 1138.4 Q 454.6 1134.4 387.9 1082.8 Q 321.2 1031.2 334 925.2 Q 346.8 819.3 398.6 705.1 Q 450.4 590.9 533.5 597.2 Q 616.5 603.5 708.9 631.4 Q 801.4 659.4 830.1 759.2 Z" fill="#E0A526" opacity="1"/><path d="M 474.9 445.6 Q 573.9 550.9 444.2 600.6 Q 314.4 650.4 188.5 714 Q 62.6 777.6 -67.7 694 Q -197.9 610.4 -149.2 488.5 Q -100.4 366.6 -24.3 282.7 Q 51.8 198.8 141.5 110.3 Q 231.3 21.9 303.6 181.1 Q 376 340.3 474.9 445.6 Z" fill="#FFCD00" opacity="0.8"/><path d="M 1642.2 749.4 Q 1733 867.3 1586.2 1021.7 Q 1439.3 1176.1 1267.1 1137.4 Q 1094.9 1098.7 952.4 1053.2 Q 810 1007.8 898.2 884.7 Q 986.4 761.6 967.4 607.6 Q 948.5 453.7 1127.4 395.6 Q 1306.4 337.5 1428.9 484.4 Q 1551.4 631.4 1642.2 749.4 Z" fill="#14568A" opacity="0.8"/><path d="M 605.8 701.9 Q 655.4 440.6 765 419" fill="none" stroke="#F1EFE8" stroke-width="12.9" stroke-linecap="round" opacity="0.7"/><path d="M 1352.4 172.3 Q 829.8 142.6 824.5 -169.4" fill="none" stroke="#F26B3A" stroke-width="56.1" stroke-linecap="round" opacity="0.6"/><path d="M 865.7 607.3 Q 1001.5 479.3 844.1 371.6" fill="none" stroke="#1B75BB" stroke-width="19.3" stroke-linecap="round" opacity="0.7"/><path d="M 567.3 609.3 Q 516.7 544.2 603 454.1" fill="none" stroke="#14568A" stroke-width="34.1" stroke-linecap="round" opacity="0.9"/><path d="M 109.1 96 Q -86.3 -79.5 -355.1 -197.4" fill="none" stroke="#E0A526" stroke-width="44.8" stroke-linecap="round" opacity="0.8"/><path d="M 1049.8 814.3 Q 1054.4 884.7 724.7 804.4" fill="none" stroke="#B0202B" stroke-width="48.3" stroke-linecap="round" opacity="0.7"/><path d="M 238.1 897 Q 463.6 962.5 246.6 880.5" fill="none" stroke="#1B75BB" stroke-width="26.4" stroke-linecap="round" opacity="0.8"/><path d="M 231.7 773.3 Q -275.5 1050.6 -228.4 1139.9" fill="none" stroke="#B0202B" stroke-width="21.8" stroke-linecap="round" opacity="0.8"/><path d="M 1048.2 806.7 Q 1135.2 857.9 1292.3 998" fill="none" stroke="#F1EFE8" stroke-width="12.7" stroke-linecap="round" opacity="0.8"/><path d="M 18.7 395 Q 79 520 89.2 685.9" fill="none" stroke="#00776F" stroke-width="34.3" stroke-linecap="round" opacity="0.8"/><path d="M 458.2 506.7 Q 403 247.3 -48.4 350.5" fill="none" stroke="#EF3340" stroke-width="44.2" stroke-linecap="round" opacity="0.8"/><path d="M 1355.3 280.8 Q 1815.2 570.1 1911.8 618.8" fill="none" stroke="#E0A526" stroke-width="55.7" stroke-linecap="round" opacity="0.7"/><rect width="1400" height="933" filter="url(#g)"/></svg>