<svg xmlns="http://www.w3.org/2000/svg" viewBox="0 0 1400 1400" width="1400" height="1400"><defs><filter id="g"><feTurbulence type="fractalNoise" baseFrequency="0.9" numOctaves="2"/><feColorMatrix type="matrix" values="0 0 0 0 0  0 0 0 0 0  0 0 0 0 0  0 0 0 0.05 0"/></filter><linearGradient id="gl" x1="0" y1="0" x2="0" y2="1"><stop offset="0" stop-color="#7B8577"/><stop offset="1" stop-color="#5C4B3A"/></linearGradient></defs><rect width="1400" height="1400" fill="#EDE9DF"/><rect y="1092" width="1400" height="308" fill="#DCD5C6"/><path d="M 602 224 C 602 350, 364 448, 364 728 C 364 1008, 518 1120, 700 1120 C 882 1120, 1036 1008, 1036 728 C 1036 448, 798 350, 798 224 Z" fill="url(#gl)"/><ellipse cx="700" cy="224" rx="98.00000000000001" ry="25.2" fill="#33291F"/><path d="M 787.3 836.5 q 6.5 197.4 0 179.6" stroke="#3E5C55" stroke-width="16.8" fill="none" opacity="0.6" stroke-linecap="round"/><path d="M 454.7 522.4 q -7.9 203.9 0 205.1" stroke="#3E5C55" stroke-width="16.8" fill="none" opacity="0.6" stroke-linecap="round"/><path d="M 542.9 716.5 q 4.5 131.4 0 279" stroke="#8E9B8B" stroke-width="16.8" fill="none" opacity="0.6" stroke-linecap="round"/><path d="M 846.8 662.7 q -7 212.4 0 211.7" stroke="#A67B4F" stroke-width="16.8" fill="none" opacity="0.6" stroke-linecap="round"/><path d="M 478.7 583.7 q 5.8 188 0 185.7" stroke="#A67B4F" stroke-width="16.8" fill="none" opacity="0.6" stroke-linecap="round"/><path d="M 656.5 556.4 q 6.5 132.6 0 240.8" stroke="#8E9B8B" stroke-width="16.8" fill="none" opacity="0.6" stroke-linecap="round"/><path d="M 876.6 702.5 q 4.3 166.1 0 177.9" stroke="#3E5C55" stroke-width="16.8" fill="none" opacity="0.6" stroke-linecap="round"/><ellipse cx="700" cy="1134" rx="364" ry="42" fill="#00000022"/><rect width="1400" height="1400" filter="url(#g)"/></svg>