<svg xmlns="http://www.w3.org/2000/svg" viewBox="0 0 1120 1400" width="1120" height="1400"><defs><filter id="g"><feTurbulence type="fractalNoise" baseFrequency="0.9" numOctaves="2"/><feColorMatrix type="matrix" values="0 0 0 0 0  0 0 0 0 0  0 0 0 0 0  0 0 0 0.05 0"/></filter></defs><rect width="1120" height="1400" fill="#1B75BB"/><path d="M 641 225.3 Q 652.8 327.9 619.8 403.7 Q 586.7 479.5 453.1 457.5 Q 319.5 435.4 312.9 330.4 Q 306.4 225.4 342.1 104 Q 377.7 -17.4 503.4 52.6 Q 629.1 122.7 641 225.3 Z" fill="#00A398" opacity="0.9"/><path d="M 980.4 108.3 Q 1034.7 197.9 902.4 394.9 Q 770.2 591.9 649.8 506.6 Q 529.4 421.3 466.4 457.9 Q 403.3 494.5 370.2 352.5 Q 337 210.5 362.4 106.4 Q 387.8 2.3 445.7 -108.7 Q 503.7 -219.7 578.9 -127.2 Q 654 -34.6 790 -7.9 Q 926 18.7 980.4 108.3 Z" fill="#00776F" opacity="0.8"/><path d="M 559.9 20.9 Q 598.3 150.3 516.6 146.5 Q 434.9 142.6 353.4 185.1 Q 271.8 227.6 278.8 171.7 Q 285.8 115.8 210.9 62.5 Q 136.1 9.2 198.9 -65.3 Q 261.7 -139.7 334.7 -173 Q 407.6 -206.3 464.5 -157.4 Q 521.5 -108.6 559.9 20.9 Z" fill="#F26B3A" opacity="0.8"/><path d="M 378.6 677.2 Q 417.5 763 346 807.8 Q 274.5 852.7 202.7 865.7 Q 130.8 878.7 103.3 791.6 Q 75.8 704.5 150.5 681.3 Q 225.2 658.1 282.4 624.8 Q 339.6 591.4 378.6 677.2 Z" fill="#B0202B" opacity="0.9"/><path d="M 1137.6 761.6 Q 1155.6 795.6 1102.8 838 Q 1050 880.5 996.4 930.3 Q 942.8 980.1 911.7 940.9 Q 880.7 901.6 860.5 864.7 Q 840.3 827.8 831.3 784.6 Q 822.3 741.4 865.4 698.5 Q 908.5 655.5 987.9 657 Q 1067.3 658.4 1093.4 693 Q 1119.5 727.7 1137.6 761.6 Z" fill="#EF3340" opacity="0.8"/><path d="M 724.9 439.7 Q 715 486.2 714.9 543.3 Q 714.8 600.4 655.8 575 Q 596.9 549.6 566.9 538.6 Q 537 527.5 542.4 484.6 Q 547.8 441.7 560.7 403.8 Q 573.6 365.9 627.2 334.2 Q 680.8 302.5 707.8 347.8 Q 734.7 393.2 724.9 439.7 Z" fill="#B0202B" opacity="0.8"/><path d="M 769.6 384.8 Q 777.8 515.7 693.1 580 Q 608.3 644.3 523.5 603 Q 438.7 561.7 326.8 469.1 Q 214.8 376.5 327.1 296.6 Q 439.4 216.7 600.4 235.2 Q 761.5 253.8 769.6 384.8 Z" fill="#B0202B" opacity="0.9"/><path d="M 1059.4 634.7 Q 1186.1 786.4 1016.1 811.7" fill="none" stroke="#FFCD00" stroke-width="24.3" stroke-linecap="round" opacity="0.9"/><path d="M 632.3 172.5 Q 887.8 -229.3 772.3 -339.7" fill="none" stroke="#B0202B" stroke-width="20.2" stroke-linecap="round" opacity="0.7"/><path d="M 235.3 1177.4 Q 162.5 829.7 205.2 1012.4" fill="none" stroke="#FFCD00" stroke-width="43.3" stroke-linecap="round" opacity="0.8"/><path d="M 967 366.7 Q 806.5 275.5 896 -92.4" fill="none" stroke="#1B75BB" stroke-width="37.8" stroke-linecap="round" opacity="0.6"/><path d="M 441.8 724.6 Q 331.4 801.3 521.6 328.1" fill="none" stroke="#E0A526" stroke-width="31.5" stroke-linecap="round" opacity="0.9"/><path d="M 85.7 982.6 Q 43.5 768.7 80.8 434.3" fill="none" stroke="#00776F" stroke-width="48.8" stroke-linecap="round" opacity="0.7"/><path d="M 101 162.9 Q -21.7 64.3 24.6 432.2" fill="none" stroke="#E0A526" stroke-width="38.3" stroke-linecap="round" opacity="0.6"/><path d="M 282.7 1055.1 Q -20.3 1295.1 -154.3 1182" fill="none" stroke="#F1EFE8" stroke-width="19.7" stroke-linecap="round" opacity="0.9"/><path d="M 762.5 1233.5 Q 868.5 1594.4 972.5 1749.2" fill="none" stroke="#00A398" stroke-width="46.1" stroke-linecap="round" opacity="0.9"/><path d="M 329.4 1200.9 Q 299 806.6 235.1 961.8" fill="none" stroke="#14568A" stroke-width="14.6" stroke-linecap="round" opacity="0.8"/><path d="M 997.6 412.1 Q 832.5 629.8 688.9 899.8" fill="none" stroke="#14568A" stroke-width="33.2" stroke-linecap="round" opacity="0.8"/><path d="M 844.6 1052 Q 1067.2 1250.5 1204.1 1395.8" fill="none" stroke="#FFCD00" stroke-width="12.7" stroke-linecap="round" opacity="0.8"/><path d="M 272.7 585.1 Q 193.8 583.8 210.3 968" fill="none" stroke="#F1EFE8" stroke-width="48.2" stroke-linecap="round" opacity="0.7"/><path d="M 162.2 724.8 Q 385.9 427.3 201.3 633.9" fill="none" stroke="#00A398" stroke-width="37.4" stroke-linecap="round" opacity="0.8"/><path d="M 1049.4 1365 Q 750.8 1623.7 861.8 1805.3" fill="none" stroke="#1B75BB" stroke-width="14.6" stroke-linecap="round" opacity="0.9"/><path d="M 249 455 Q 629.2 354 581.9 1.7" fill="none" stroke="#1B75BB" stroke-width="15.7" stroke-linecap="round" opacity="0.6"/><path d="M 518 403.9 Q 367 674.1 299 916.2" fill="none" stroke="#E0A526" stroke-width="33.5" stroke-linecap="round" opacity="0.7"/><path d="M 455.7 562 Q 129.1 968.8 103 833.3" fill="none" stroke="#00A398" stroke-width="29.7" stroke-linecap="round" opacity="0.9"/><rect width="1120" height="1400" filter="url(#g)"/></svg>