<svg xmlns="http://www.w3.org/2000/svg" viewBox="0 0 1120 1400" width="1120" height="1400"><defs><filter id="g"><feTurbulence type="fractalNoise" baseFrequency="0.9" numOctaves="2"/><feColorMatrix type="matrix" values="0 0 0 0 0  0 0 0 0 0  0 0 0 0 0  0 0 0 0.05 0"/></filter></defs><rect width="1120" height="1400" fill="#EF3340"/><path d="M 1163 489.8 Q 1190.8 601.5 1096.7 705.5 Q 1002.6 809.5 858 764 Q 713.5 718.4 691.5 616.9 Q 669.4 515.4 708.5 389.8 Q 747.5 264.2 941.3 321.1 Q 1135.1 378.1 1163 489.8 Z" fill="#00776F" opacity="0.8"/><path d="M 1199.8 894.4 Q 1252 928.3 1189.1 981.3 Q 1126.3 1034.4 1083.5 1080.2 Q 1040.8 1125.9 976.2 1049.5 Q 911.7 973 876.1 914.2 Q 840.4 855.4 911.7 827.4 Q 982.9 799.4 1021.7 787.7 Q 1060.5 775.9 1104.1 818.2 Q 1147.6 860.5 1199.8 894.4 Z" fill="#EF3340" opacity="1"/><path d="M 349.6 394.1 Q 363.1 534.8 279.3 555.2 Q 195.5 575.6 71.3 576.3 Q -52.8 577 -26.9 504.4 Q -1.1 431.9 57.8 326.7 Q 116.6 221.6 226.3 237.5 Q 336 253.3 349.6 394.1 Z" fill="#00776F" opacity="0.8"/><path d="M 1475.7 336.4 Q 1433.4 534.9 1382.5 660.8 Q 1331.6 786.7 1048.8 775 Q 765.9 763.3 712.5 504.7 Q 659.2 246.1 806.5 151.5 Q 953.9 56.8 1236 97.3 Q 1518 137.9 1475.7 336.4 Z" fill="#14568A" opacity="0.8"/><path d="M 1353.4 215.9 Q 1384.6 356.2 1251.3 459 Q 1118 561.9 993 613.6 Q 867.9 665.3 737 506.8 Q 606.1 348.3 608.4 173.1 Q 610.7 -2.1 859 -30.8 Q 1107.3 -59.5 1214.7 8.1 Q 1322.2 75.7 1353.4 215.9 Z" fill="#1B75BB" opacity="0.9"/><path d="M 1111.3 43.1 Q 1140.5 112.5 1111.8 191.5 Q 1083.1 270.4 999 293.9 Q 915 317.4 833.8 241.1 Q 752.7 164.7 780.5 70.2 Q 808.4 -24.4 909.8 -76 Q 1011.1 -127.5 1046.6 -76.9 Q 1082.1 -26.3 1111.3 43.1 Z" fill="#EF3340" opacity="0.9"/><path d="M 491 1354.1 Q 488.7 1450.8 455.1 1539.5 Q 421.6 1628.3 292.9 1597.4 Q 164.1 1566.5 69.9 1563.4 Q -24.3 1560.2 -90.7 1415.7 Q -157.1 1271.3 -72.9 1148.4 Q 11.3 1025.6 174.9 1063.8 Q 338.5 1102 415.9 1179.7 Q 493.3 1257.4 491 1354.1 Z" fill="#F26B3A" opacity="0.9"/><path d="M 1183.6 1206.3 Q 1123.5 1296.7 1116.5 1356.4 Q 1109.5 1416.1 990.1 1467.1 Q 870.8 1518 721.1 1503.7 Q 571.4 1489.4 532.5 1386.3 Q 493.6 1283.3 570.4 1161.8 Q 647.3 1040.4 679 948.7 Q 710.7 857 875.6 847.3 Q 1040.5 837.7 1142.1 976.8 Q 1243.7 1115.9 1183.6 1206.3 Z" fill="#00776F" opacity="0.8"/><path d="M 732.7 557.6 Q 723.9 661.3 662.7 732.9 Q 601.4 804.5 500.2 819.6 Q 398.9 834.7 265.4 764.5 Q 131.8 694.3 190.4 468.9 Q 249.1 243.5 334.5 230.7 Q 419.9 218 580.7 336 Q 741.5 454 732.7 557.6 Z" fill="#14568A" opacity="0.8"/><path d="M 779.6 1114.9 Q 808.6 1196.1 735.8 1236.5 Q 662.9 1276.9 615.2 1269.6 Q 567.5 1262.4 543 1193.2 Q 518.5 1124 581.5 1076.5 Q 644.6 1028.9 697.6 1031.3 Q 750.5 1033.7 779.6 1114.9 Z" fill="#00A398" opacity="1"/><path d="M 401.7 1249.7 Q 500.2 943.9 714.8 903.1" fill="none" stroke="#1B75BB" stroke-width="47.4" stroke-linecap="round" opacity="0.7"/><path d="M 641.9 1281.6 Q 597.5 994 895 793.5" fill="none" stroke="#00A398" stroke-width="18" stroke-linecap="round" opacity="0.7"/><path d="M 514.5 149.3 Q 348.2 -85.9 152.1 -8.4" fill="none" stroke="#00A398" stroke-width="20.2" stroke-linecap="round" opacity="0.6"/><path d="M 371.9 822.8 Q 272 906 137.2 700.7" fill="none" stroke="#00A398" stroke-width="35.5" stroke-linecap="round" opacity="0.9"/><path d="M 778.2 660 Q 561.2 591.1 772.7 230.3" fill="none" stroke="#FFCD00" stroke-width="20.8" stroke-linecap="round" opacity="0.9"/><path d="M 3 40.1 Q -160.8 -124.4 55.9 -14.4" fill="none" stroke="#1B75BB" stroke-width="23.8" stroke-linecap="round" opacity="0.7"/><path d="M 277.3 1332.9 Q 219.4 1417.1 554.5 1706.6" fill="none" stroke="#00A398" stroke-width="16.3" stroke-linecap="round" opacity="0.9"/><path d="M 298.3 294.9 Q 204.1 372.9 297 -65.4" fill="none" stroke="#B0202B" stroke-width="15" stroke-linecap="round" opacity="0.6"/><path d="M 93.4 146.9 Q -38.7 418.5 96.8 508.4" fill="none" stroke="#E0A526" stroke-width="38.7" stroke-linecap="round" opacity="0.8"/><path d="M 81.8 1207.2 Q -225.8 1432.6 -345.3 1441.6" fill="none" stroke="#FFCD00" stroke-width="30.8" stroke-linecap="round" opacity="0.8"/><path d="M 776.2 777.5 Q 752 986.8 1125 749.7" fill="none" stroke="#FFCD00" stroke-width="19.5" stroke-linecap="round" opacity="0.7"/><path d="M 215.9 1060.4 Q 377.2 1443.8 597.2 1373" fill="none" stroke="#14568A" stroke-width="37.8" stroke-linecap="round" opacity="0.6"/><path d="M 15.7 853.6 Q 43.8 567.5 361.9 596.3" fill="none" stroke="#EF3340" stroke-width="14" stroke-linecap="round" opacity="0.8"/><path d="M 80.4 1355.9 Q 239.7 1525.3 417.4 1690" fill="none" stroke="#1B75BB" stroke-width="46.6" stroke-linecap="round" opacity="0.7"/><rect width="1120" height="1400" filter="url(#g)"/></svg>