<svg xmlns="http://www.w3.org/2000/svg" viewBox="0 0 1100 1400" width="1100" height="1400"><defs><filter id="g"><feTurbulence type="fractalNoise" baseFrequency="0.9" numOctaves="2"/><feColorMatrix type="matrix" values="0 0 0 0 0  0 0 0 0 0  0 0 0 0 0  0 0 0 0.05 0"/></filter></defs><rect width="1100" height="1400" fill="#1B75BB"/><path d="M 210.4 684.3 Q 170.1 774 136.7 869.3 Q 103.4 964.5 17.2 904.9 Q -69.1 845.3 -115.9 805.1 Q -162.6 765 -148.4 631.4 Q -134.1 497.8 -53.7 490.4 Q 26.7 483 138.8 538.8 Q 250.8 594.6 210.4 684.3 Z" fill="#00A398" opacity="0.8"/><path d="M 475 170.2 Q 489.5 238.1 449 307.4 Q 408.5 376.6 353.5 327 Q 298.4 277.3 260.1 219.5 Q 221.7 161.7 302.1 129.4 Q 382.6 97.1 421.6 99.7 Q 460.5 102.3 475 170.2 Z" fill="#F26B3A" opacity="0.8"/><path d="M 555.7 337.3 Q 586 427.4 540.9 457.2 Q 495.8 486.9 355.5 488 Q 215.2 489.1 175.3 413.8 Q 135.3 338.5 251.2 262.4 Q 367 186.3 446.2 216.8 Q 525.4 247.3 555.7 337.3 Z" fill="#F1EFE8" opacity="0.9"/><path d="M 471.3 447.2 Q 485.8 595.3 382.5 707.6 Q 279.2 819.9 118.7 860.1 Q -41.9 900.3 -119.2 784 Q -196.5 667.8 -279.1 493.6 Q -361.6 319.3 -236.6 195.4 Q -111.5 71.5 63.6 93.2 Q 238.7 114.9 347.8 207 Q 456.9 299.1 471.3 447.2 Z" fill="#00776F" opacity="0.9"/><path d="M 1182.9 1096.6 Q 1132.8 1225.9 1096.5 1307.6 Q 1060.1 1389.2 943.9 1479.1 Q 827.7 1568.9 722.3 1504.2 Q 617 1439.5 575.8 1285.2 Q 534.7 1130.8 649.2 1034.1 Q 763.7 937.3 911.3 832.7 Q 1058.9 728 1145.9 847.6 Q 1232.9 967.2 1182.9 1096.6 Z" fill="#14568A" opacity="1"/><path d="M 526.1 476.2 Q 528.6 551.1 491 691.8 Q 453.4 832.5 361.8 825.3 Q 270.2 818.1 190.1 793.7 Q 109.9 769.3 146.4 659.9 Q 182.8 550.5 201.6 478.8 Q 220.4 407.2 212.8 317.3 Q 205.2 227.3 317 238.5 Q 428.8 249.6 476.2 325.5 Q 523.5 401.3 526.1 476.2 Z" fill="#FFCD00" opacity="0.8"/><path d="M 1242 975 Q 1295 1111.7 1190.6 1239.9 Q 1086.3 1368.2 965.8 1356.3 Q 845.3 1344.5 742.2 1287.6 Q 639 1230.8 640.1 1085.6 Q 641.3 940.4 709.4 800.7 Q 777.6 661 915.4 659.5 Q 1053.2 658.1 1121.1 748.2 Q 1189 838.3 1242 975 Z" fill="#00776F" opacity="0.9"/><path d="M 837.2 918.7 Q 850.3 998.7 779.6 1088.9 Q 708.8 1179.1 623.7 1158.4 Q 538.6 1137.7 485.8 1151.4 Q 433.1 1165.1 350.3 1104.4 Q 267.6 1043.8 329.9 942.3 Q 392.2 840.8 440 763.1 Q 487.9 685.5 570.1 742.7 Q 652.3 799.8 738.2 819.3 Q 824 838.7 837.2 918.7 Z" fill="#14568A" opacity="0.8"/><path d="M 1038.4 632.7 Q 1022.2 773.2 959.5 909.7 Q 896.7 1046.1 748.2 1141.8 Q 599.7 1237.5 434.7 1079.8 Q 269.7 922.2 327 671.7 Q 384.3 421.2 566.2 378.9 Q 748.2 336.6 901.4 414.3 Q 1054.5 492.1 1038.4 632.7 Z" fill="#F1EFE8" opacity="0.9"/><path d="M 945.5 700.3 Q 997.7 731.6 935.8 845.8 Q 873.9 960.1 813.5 962 Q 753.1 964 688.8 942.4 Q 624.5 920.9 620.5 837.9 Q 616.5 755 605.4 688.3 Q 594.2 621.7 660 623.2 Q 725.7 624.8 783.7 570.3 Q 841.8 515.9 867.6 592.5 Q 893.3 669.1 945.5 700.3 Z" fill="#F26B3A" opacity="0.9"/><path d="M 1277.3 246.5 Q 1306.8 447.8 1205 482.3 Q 1103.2 516.9 982.6 580.5 Q 861.9 644.1 783 535.7 Q 704.2 427.4 780.7 268.9 Q 857.2 110.4 891.7 37.9 Q 926.3 -34.6 1087.1 5.3 Q 1247.8 45.2 1277.3 246.5 Z" fill="#E0A526" opacity="1"/><path d="M 244.4 582.9 Q 4 767.4 -12 403.1" fill="none" stroke="#F1EFE8" stroke-width="46.6" stroke-linecap="round" opacity="0.9"/><path d="M 423.2 1319.6 Q 541.3 1247.4 281.9 1382.4" fill="none" stroke="#00776F" stroke-width="20" stroke-linecap="round" opacity="0.9"/><path d="M 110.3 847.2 Q 87.4 1089.9 -179.6 809.7" fill="none" stroke="#00776F" stroke-width="38.7" stroke-linecap="round" opacity="0.9"/><path d="M 894.8 1138.6 Q 1053.9 908.3 1114 1030" fill="none" stroke="#E0A526" stroke-width="16" stroke-linecap="round" opacity="0.7"/><path d="M 904.8 774.4 Q 731.4 584.6 719.3 612.1" fill="none" stroke="#F26B3A" stroke-width="48" stroke-linecap="round" opacity="0.9"/><path d="M 227.7 637.2 Q 284 712.9 -73.9 858.6" fill="none" stroke="#14568A" stroke-width="28" stroke-linecap="round" opacity="0.8"/><path d="M 1022.1 609 Q 1286.8 256.2 1244.7 306.9" fill="none" stroke="#1B75BB" stroke-width="28.3" stroke-linecap="round" opacity="0.7"/><path d="M 246.4 55.6 Q 114 -398.1 381.1 -365.6" fill="none" stroke="#00A398" stroke-width="22" stroke-linecap="round" opacity="0.8"/><path d="M 163.8 682.6 Q -50.9 263.3 145 342" fill="none" stroke="#14568A" stroke-width="48.6" stroke-linecap="round" opacity="0.8"/><path d="M 786.9 444.3 Q 1024.3 765.8 856 534" fill="none" stroke="#1B75BB" stroke-width="15.5" stroke-linecap="round" opacity="0.8"/><path d="M 323.1 395.4 Q 328.3 -14.6 65 -2.8" fill="none" stroke="#EF3340" stroke-width="30.5" stroke-linecap="round" opacity="0.8"/><path d="M 216 1305.9 Q 367.7 940.9 384.7 872.1" fill="none" stroke="#F1EFE8" stroke-width="15.4" stroke-linecap="round" opacity="0.8"/><path d="M 998.3 110.1 Q 914.1 79.5 644.3 419.8" fill="none" stroke="#E0A526" stroke-width="37.8" stroke-linecap="round" opacity="0.6"/><path d="M 664.9 112 Q 1006.7 -418.7 1028.5 -418.7" fill="none" stroke="#FFCD00" stroke-width="22.6" stroke-linecap="round" opacity="0.9"/><path d="M 102.9 728.3 Q 463 789.7 467.2 536.8" fill="none" stroke="#14568A" stroke-width="21.2" stroke-linecap="round" opacity="0.6"/><path d="M 783.1 1214.3 Q 1025.3 1614.8 1206 1494.5" fill="none" stroke="#00776F" stroke-width="42.2" stroke-linecap="round" opacity="0.9"/><path d="M 521.9 423.1 Q 658 -76.9 628.6 -23.1" fill="none" stroke="#14568A" stroke-width="16.5" stroke-linecap="round" opacity="0.7"/><path d="M 326.4 206.6 Q 121.7 531.9 213.7 671" fill="none" stroke="#FFCD00" stroke-width="17.6" stroke-linecap="round" opacity="0.7"/><rect width="1100" height="1400" filter="url(#g)"/></svg>