<svg xmlns="http://www.w3.org/2000/svg" viewBox="0 0 1400 700" width="1400" height="700"><defs><filter id="g"><feTurbulence type="fractalNoise" baseFrequency="0.9" numOctaves="2"/><feColorMatrix type="matrix" values="0 0 0 0 0  0 0 0 0 0  0 0 0 0 0  0 0 0 0.05 0"/></filter></defs><rect width="1400" height="700" fill="#1B75BB"/><path d="M 1337.1 -5.6 Q 1336.2 74.9 1320.2 99.1 Q 1304.2 123.4 1229 192.6 Q 1153.8 261.8 1109.3 194.3 Q 1064.7 126.8 1053.8 34 Q 1042.9 -58.9 1042.4 -120.6 Q 1041.9 -182.3 1128.2 -199 Q 1214.5 -215.7 1276.2 -150.8 Q 1338 -86 1337.1 -5.6 Z" fill="#FFCD00" opacity="0.8"/><path d="M 1263.4 503 Q 1187.3 812 1154.2 1003.2 Q 1121 1194.5 979.8 1250.9 Q 838.6 1307.3 591 1100.4 Q 343.4 893.4 247.9 760.4 Q 152.5 627.4 417 459.4 Q 681.5 291.5 825.6 203.6 Q 969.8 115.7 1154.6 154.9 Q 1339.5 194 1263.4 503 Z" fill="#00A398" opacity="0.9"/><path d="M 928.2 414.7 Q 912 552.9 767.9 666.6 Q 623.8 780.3 495 896 Q 366.1 1011.7 263.4 838.4 Q 160.7 665.1 105.3 568.7 Q 49.8 472.4 185 370.4 Q 320.2 268.5 422.4 141.5 Q 524.6 14.6 734.5 145.5 Q 944.4 276.5 928.2 414.7 Z" fill="#E0A526" opacity="0.8"/><path d="M 529.5 81.8 Q 458.3 263.6 374.9 372.8 Q 291.4 482 99.5 625.6 Q -92.5 769.3 -179.7 556.1 Q -266.9 342.9 -435.9 294.4 Q -604.9 246 -424.6 -1.8 Q -244.2 -249.6 -194.3 -316.3 Q -144.4 -382.9 19.9 -353.8 Q 184.2 -324.7 392.4 -212.3 Q 600.7 -99.9 529.5 81.8 Z" fill="#F1EFE8" opacity="0.9"/><path d="M 996.6 290.7 Q 988.7 457.8 865.8 485.1 Q 742.8 512.4 639.7 618 Q 536.7 723.6 339.3 594.2 Q 141.9 464.8 149.6 334.7 Q 157.3 204.6 306.5 107.2 Q 455.7 9.8 576.3 -0.4 Q 696.8 -10.7 850.6 56.4 Q 1004.4 123.5 996.6 290.7 Z" fill="#1B75BB" opacity="0.8"/><path d="M 1557.2 431.3 Q 1583 742.3 1407.1 814.1 Q 1231.2 885.9 1071.6 877 Q 912.1 868.2 828.5 663 Q 745 457.9 834 324 Q 923.1 190 1227.2 155.2 Q 1531.3 120.3 1557.2 431.3 Z" fill="#14568A" opacity="0.8"/><path d="M 906.4 295.7 Q 918.9 476.7 785 521.2 Q 651.1 565.7 485.3 664.7 Q 319.5 763.6 250.9 570.3 Q 182.3 377 155 189.9 Q 127.7 2.9 327 14.3 Q 526.3 25.7 710.1 70.2 Q 894 114.8 906.4 295.7 Z" fill="#F1EFE8" opacity="1"/><path d="M 1307 161.2 Q 1309.5 299 1245.8 400.6 Q 1182.1 502.2 1031 464.3 Q 879.8 426.5 839.9 261.5 Q 800 96.6 865.8 23.3 Q 931.6 -49.9 1118 -13.3 Q 1304.5 23.4 1307 161.2 Z" fill="#14568A" opacity="0.8"/><path d="M 1547.2 361.3 Q 1587.5 427.2 1540.7 481 Q 1493.9 534.7 1444.2 559.5 Q 1394.4 584.2 1351.6 522.8 Q 1308.8 461.4 1253.3 455.9 Q 1197.9 450.4 1252.8 384.6 Q 1307.7 318.9 1332.8 288.1 Q 1357.8 257.2 1411.3 227.2 Q 1464.8 197.1 1485.8 246.2 Q 1506.8 295.3 1547.2 361.3 Z" fill="#FFCD00" opacity="1"/><path d="M 683 419.5 Q 695.6 523.1 589.4 689.8 Q 483.1 856.4 399.3 828.9 Q 315.6 801.5 206.1 809.9 Q 96.7 818.4 94.3 658.1 Q 92 497.8 77.8 442.9 Q 63.6 388.1 190.3 254.7 Q 317 121.3 384.5 148.4 Q 452.1 175.4 561.2 245.6 Q 670.3 315.9 683 419.5 Z" fill="#14568A" opacity="0.9"/><path d="M 1017.1 218.9 Q 1361.8 197.3 1539.1 31" fill="none" stroke="#F26B3A" stroke-width="17.5" stroke-linecap="round" opacity="0.6"/><path d="M 1032.5 376.1 Q 1207.2 538.3 1059.6 558.4" fill="none" stroke="#00776F" stroke-width="34.2" stroke-linecap="round" opacity="0.7"/><path d="M 428.2 309.1 Q 412.4 574.7 409.8 588" fill="none" stroke="#F1EFE8" stroke-width="29.5" stroke-linecap="round" opacity="0.7"/><path d="M 832.5 561 Q 844.4 671.5 1226.4 777.6" fill="none" stroke="#EF3340" stroke-width="47.9" stroke-linecap="round" opacity="0.7"/><path d="M 643.5 78.5 Q 1182.7 178.6 1167.5 125.5" fill="none" stroke="#00776F" stroke-width="12.8" stroke-linecap="round" opacity="0.8"/><path d="M 35.9 221.6 Q 314.7 225.7 576.2 51.7" fill="none" stroke="#F26B3A" stroke-width="30.4" stroke-linecap="round" opacity="0.7"/><path d="M 685.2 509.3 Q 751 397.5 908.1 278.7" fill="none" stroke="#00A398" stroke-width="36.1" stroke-linecap="round" opacity="0.8"/><path d="M 115 77.1 Q 44 151.3 -74.9 20.3" fill="none" stroke="#1B75BB" stroke-width="40.6" stroke-linecap="round" opacity="0.6"/><path d="M 1194.2 124.4 Q 1346.2 298.3 1420.3 373" fill="none" stroke="#00776F" stroke-width="50.6" stroke-linecap="round" opacity="0.7"/><path d="M 1109.4 232.6 Q 732.2 397.6 602.5 403.8" fill="none" stroke="#EF3340" stroke-width="42.2" stroke-linecap="round" opacity="0.7"/><path d="M 1129.2 432.7 Q 1024.1 554 876.8 518.7" fill="none" stroke="#F1EFE8" stroke-width="44.1" stroke-linecap="round" opacity="0.7"/><path d="M 437.1 18.8 Q 807.9 -24.8 809.7 -26.2" fill="none" stroke="#00776F" stroke-width="46" stroke-linecap="round" opacity="0.9"/><path d="M 968.5 447 Q 715.4 313.3 721 408.7" fill="none" stroke="#EF3340" stroke-width="32.3" stroke-linecap="round" opacity="0.9"/><path d="M 1205 396.8 Q 1428.9 566 1400.6 582.8" fill="none" stroke="#E0A526" stroke-width="16.9" stroke-linecap="round" opacity="0.8"/><path d="M 378.4 632.3 Q 296.3 544.6 -49.8 495.1" fill="none" stroke="#E0A526" stroke-width="55.8" stroke-linecap="round" opacity="0.8"/><path d="M 492.8 529.8 Q 368.7 604.8 -29.3 607.1" fill="none" stroke="#00A398" stroke-width="18.7" stroke-linecap="round" opacity="0.6"/><rect width="1400" height="700" filter="url(#g)"/></svg>