<svg xmlns="http://www.w3.org/2000/svg" viewBox="0 0 1050 1400" width="1050" height="1400"><defs><filter id="g"><feTurbulence type="fractalNoise" baseFrequency="0.9" numOctaves="2"/><feColorMatrix type="matrix" values="0 0 0 0 0  0 0 0 0 0  0 0 0 0 0  0 0 0 0.05 0"/></filter></defs><rect width="1050" height="1400" fill="#FFCD00"/><path d="M 498.7 38.1 Q 483.7 123.3 458.5 196.9 Q 433.3 270.6 286.4 242.4 Q 139.6 214.2 183.5 140.2 Q 227.5 66.3 243.7 -39.1 Q 259.8 -144.5 386.7 -95.8 Q 513.7 -47 498.7 38.1 Z" fill="#1B75BB" opacity="0.9"/><path d="M 663.6 775 Q 671.2 903.2 638.5 984.2 Q 605.8 1065.1 509.6 1059.8 Q 413.4 1054.5 338.4 1018.5 Q 263.3 982.4 216.8 858.8 Q 170.3 735.2 230.2 676.1 Q 290.1 617 412.2 618.2 Q 534.4 619.3 595.2 633.1 Q 655.9 646.9 663.6 775 Z" fill="#F1EFE8" opacity="0.8"/><path d="M 996.1 1330.3 Q 1005.6 1436 916.9 1501.5 Q 828.1 1567.1 747.9 1583.9 Q 667.7 1600.6 526.8 1521.5 Q 385.9 1442.3 386.1 1346.9 Q 386.3 1251.6 468.2 1149.5 Q 550 1047.5 656.3 1000.9 Q 762.5 954.3 874.6 1089.4 Q 986.6 1224.6 996.1 1330.3 Z" fill="#F1EFE8" opacity="0.8"/><path d="M 1077 376.3 Q 1140.9 426 1116.9 485.6 Q 1093 545.3 990.8 555.6 Q 888.6 565.9 869.1 542.7 Q 849.6 519.5 812.2 479.1 Q 774.8 438.8 778.9 356.1 Q 782.9 273.4 819.1 238.2 Q 855.3 203 931.1 218 Q 1006.8 233 1010 279.9 Q 1013.1 326.7 1077 376.3 Z" fill="#00776F" opacity="0.9"/><path d="M 1169.3 534.3 Q 1198.2 665.2 1137.2 700.2 Q 1076.2 735.2 1015.1 733.2 Q 954 731.3 925.3 669.7 Q 896.6 608.1 900.4 539.7 Q 904.2 471.3 961.2 433.3 Q 1018.1 395.4 1079.3 399.3 Q 1140.4 403.3 1169.3 534.3 Z" fill="#1B75BB" opacity="1"/><path d="M 780.2 936 Q 889 1066.9 715.3 1132.4 Q 541.6 1197.9 415.4 1231.5 Q 289.2 1265.1 269.2 1072.7 Q 249.2 880.3 344.3 789 Q 439.4 697.6 555.4 751.3 Q 671.3 805 780.2 936 Z" fill="#B0202B" opacity="0.8"/><path d="M 615.7 243 Q 562.6 401.9 480.5 596 Q 398.4 790.2 291.4 708.4 Q 184.4 626.6 12 632.6 Q -160.3 638.6 -180 413.5 Q -199.7 188.4 -12.8 149.3 Q 174.1 110.3 221.1 -19 Q 268.1 -148.2 468.4 -32.1 Q 668.8 84 615.7 243 Z" fill="#FFCD00" opacity="0.9"/><path d="M 718.6 241.9 Q 750.5 376.4 672.9 429.5 Q 595.4 482.6 493.3 469.2 Q 391.3 455.8 390.1 372.9 Q 388.8 290 442.6 205.3 Q 496.5 120.6 591.6 113.9 Q 686.6 107.3 718.6 241.9 Z" fill="#00A398" opacity="0.8"/><path d="M 699 1233 Q 755.9 1320.8 664.3 1386.4 Q 572.7 1452 522 1439.5 Q 471.3 1427 405.1 1308.9 Q 338.8 1190.7 373.8 1097.8 Q 408.9 1004.8 525.5 1075 Q 642.2 1145.2 699 1233 Z" fill="#1B75BB" opacity="1"/><path d="M 648.9 1125.2 Q 944.1 987.8 861.3 624.5" fill="none" stroke="#E0A526" stroke-width="34.8" stroke-linecap="round" opacity="0.9"/><path d="M 833.1 432.9 Q 1094.1 417.1 1155.1 843.2" fill="none" stroke="#F26B3A" stroke-width="10" stroke-linecap="round" opacity="0.7"/><path d="M 221.1 469.4 Q 292.6 233.9 100.2 -35.9" fill="none" stroke="#F1EFE8" stroke-width="11.6" stroke-linecap="round" opacity="0.8"/><path d="M 142.5 345.7 Q 152.2 161.2 504.1 309.6" fill="none" stroke="#FFCD00" stroke-width="41" stroke-linecap="round" opacity="0.9"/><path d="M 120.1 134.5 Q -20.6 -46.4 -228 252.4" fill="none" stroke="#F1EFE8" stroke-width="39.3" stroke-linecap="round" opacity="0.7"/><path d="M 931.7 128.2 Q 993.8 371.4 825 204.4" fill="none" stroke="#00A398" stroke-width="46.2" stroke-linecap="round" opacity="0.7"/><path d="M 85.1 1093 Q 67.8 853.5 204.8 708.7" fill="none" stroke="#F1EFE8" stroke-width="40.9" stroke-linecap="round" opacity="0.7"/><path d="M 842.8 309.3 Q 1124.4 345 1029 564" fill="none" stroke="#FFCD00" stroke-width="28.2" stroke-linecap="round" opacity="0.8"/><path d="M 311.2 1040.4 Q 63 1027.1 27.4 1505.3" fill="none" stroke="#EF3340" stroke-width="24.1" stroke-linecap="round" opacity="0.9"/><path d="M 373.6 682.7 Q 239 959.1 229 844.5" fill="none" stroke="#00A398" stroke-width="43.6" stroke-linecap="round" opacity="0.9"/><path d="M 1005.8 79.6 Q 1189.9 -102.3 1335.7 -190.8" fill="none" stroke="#F1EFE8" stroke-width="46.6" stroke-linecap="round" opacity="0.7"/><path d="M 910.6 1246.3 Q 1021.2 1121.3 908.6 958.3" fill="none" stroke="#1B75BB" stroke-width="8.7" stroke-linecap="round" opacity="0.9"/><path d="M 856.1 1357.3 Q 793.5 1310.8 888.8 1360.2" fill="none" stroke="#E0A526" stroke-width="9.8" stroke-linecap="round" opacity="0.7"/><path d="M 763.7 412.5 Q 407 712 395.3 959.5" fill="none" stroke="#F26B3A" stroke-width="10.8" stroke-linecap="round" opacity="0.9"/><path d="M 874.9 1096.6 Q 929.7 1397.9 652.2 1346.2" fill="none" stroke="#14568A" stroke-width="9.2" stroke-linecap="round" opacity="0.8"/><path d="M 574.1 284.5 Q 787.8 -160 653.2 -206.2" fill="none" stroke="#E0A526" stroke-width="22.8" stroke-linecap="round" opacity="0.8"/><path d="M 90.6 840.8 Q 130.6 871.9 495.7 531.4" fill="none" stroke="#00776F" stroke-width="24.6" stroke-linecap="round" opacity="0.7"/><rect width="1050" height="1400" filter="url(#g)"/></svg>