<svg xmlns="http://www.w3.org/2000/svg" viewBox="0 0 1089 1400" width="1089" height="1400"><defs><filter id="g"><feTurbulence type="fractalNoise" baseFrequency="0.9" numOctaves="2"/><feColorMatrix type="matrix" values="0 0 0 0 0  0 0 0 0 0  0 0 0 0 0  0 0 0 0.04 0"/></filter></defs><rect width="1089" height="1400" fill="#F5EEDC"/><rect x="98.00999999999999" y="98.00999999999999" width="892.98" height="1203.98" fill="none" stroke="#C9A227" stroke-width="13.068"/><rect x="156.816" y="156.816" width="326.7" height="326.7" fill="#C9A227"/><path d="M 201.4 469.5 Q 211.7 499.8 189 518.3 Q 166.3 536.8 131.1 533.6 Q 95.9 530.5 97.2 501 Q 98.5 471.6 124.3 450.6 Q 150.1 429.5 170.6 434.3 Q 191.2 439.2 201.4 469.5 Z" fill="#1B75BB" opacity="0.85"/><path d="M 364.4 437.6 Q 366.7 466.1 363.4 476 Q 360.1 485.8 333.2 500.1 Q 306.3 514.5 286.1 481 Q 265.9 447.5 267 425.5 Q 268 403.6 300.4 397 Q 332.8 390.3 347.5 399.7 Q 362.1 409.1 364.4 437.6 Z" fill="#8A2BE2" opacity="0.85"/><path d="M 421.5 187.7 Q 439.2 213.5 413.4 223.7 Q 387.6 233.9 357.7 239.7 Q 327.7 245.6 309.2 216.8 Q 290.7 188.1 322.1 164.4 Q 353.4 140.8 378.6 151.4 Q 403.8 162 421.5 187.7 Z" fill="#EF3340" opacity="0.85"/><path d="M 377 231.7 Q 393 257.9 363.6 264.3 Q 334.1 270.8 316.4 271.8 Q 298.7 272.9 273.2 248.6 Q 247.6 224.2 252 210.5 Q 256.4 196.9 284.4 187.9 Q 312.4 179 336.7 192.3 Q 361 205.5 377 231.7 Z" fill="#1B75BB" opacity="0.85"/><path d="M 521.2 324.7 Q 511.6 351.2 497.3 360.4 Q 483 369.6 460.7 390 Q 438.3 410.3 415.9 384.8 Q 393.5 359.2 386.8 343.3 Q 380.2 327.5 389.8 294.2 Q 399.4 260.9 434 278.5 Q 468.6 296.1 499.6 297.2 Q 530.7 298.3 521.2 324.7 Z" fill="#EF3340" opacity="0.85"/><path d="M 399.2 390.4 Q 387.4 411.8 388.9 445.6 Q 390.4 479.5 359.1 476.1 Q 327.9 472.8 301 463.9 Q 274 455 268.7 434.9 Q 263.4 414.8 275.1 388.1 Q 286.8 361.4 311 359.1 Q 335.1 356.9 353.4 345 Q 371.7 333.1 391.3 351.1 Q 410.9 369.1 399.2 390.4 Z" fill="#1B75BB" opacity="0.85"/><rect x="156.816" y="156.816" width="326.7" height="326.7" fill="none" stroke="#2B2620" stroke-width="6.534"/><rect x="537.966" y="186.2" width="350.4" height="13.068" fill="#2B2620" opacity="0.75"/><rect x="537.966" y="235.2" width="324.1" height="13.068" fill="#2B2620" opacity="0.75"/><rect x="537.966" y="284.2" width="393.2" height="13.068" fill="#2B2620" opacity="0.75"/><rect x="537.966" y="333.2" width="387.5" height="13.068" fill="#2B2620" opacity="0.75"/><rect x="537.966" y="382.2" width="368.3" height="13.068" fill="#2B2620" opacity="0.75"/><rect x="537.966" y="431.2" width="331.5" height="13.068" fill="#2B2620" opacity="0.75"/><rect x="537.966" y="480.2" width="378.1" height="13.068" fill="#2B2620" opacity="0.75"/><rect x="156.816" y="553.5" width="752.1" height="13.068" fill="#2B2620" opacity="0.75"/><rect x="156.816" y="602.5" width="767" height="13.068" fill="#2B2620" opacity="0.75"/><rect x="156.816" y="651.5" width="693.2" height="13.068" fill="#2B2620" opacity="0.75"/><rect x="156.816" y="700.5" width="635" height="13.068" fill="#2B2620" opacity="0.75"/><rect x="156.816" y="749.5" width="665.2" height="13.068" fill="#2B2620" opacity="0.75"/><rect x="156.816" y="798.5" width="718.2" height="13.068" fill="#2B2620" opacity="0.75"/><rect x="156.816" y="847.5" width="755.5" height="13.068" fill="#2B2620" opacity="0.75"/><rect x="156.816" y="896.6" width="669.7" height="13.068" fill="#2B2620" opacity="0.75"/><rect x="156.816" y="945.6" width="739.7" height="13.068" fill="#2B2620" opacity="0.75"/><rect x="156.816" y="994.6" width="624.8" height="13.068" fill="#2B2620" opacity="0.75"/><rect x="156.816" y="1043.6" width="735.9" height="13.068" fill="#2B2620" opacity="0.75"/><rect x="156.816" y="1092.6" width="743.2" height="13.068" fill="#2B2620" opacity="0.75"/><rect x="156.816" y="1141.6" width="756.5" height="13.068" fill="#2B2620" opacity="0.75"/><rect x="156.816" y="1190.6" width="745.4" height="13.068" fill="#2B2620" opacity="0.75"/><path d="M 577 1059.4 Q 439.4 911.7 644.6 690.1" fill="none" stroke="#C9A227" stroke-width="6.534" opacity="0.5"/><path d="M 253.1 798.9 Q 112.8 837.8 254.5 1286.7" fill="none" stroke="#C9A227" stroke-width="6.534" opacity="0.5"/><path d="M 973.7 27.4 Q 656.3 -396.7 664.9 -506.2" fill="none" stroke="#C9A227" stroke-width="6.534" opacity="0.5"/><path d="M 431.5 227 Q 744.3 73.7 841 -20.1" fill="none" stroke="#C9A227" stroke-width="6.534" opacity="0.5"/><path d="M 725.8 1292.8 Q 458.6 1515.6 594.1 1698.2" fill="none" stroke="#C9A227" stroke-width="6.534" opacity="0.5"/><rect width="1089" height="1400" filter="url(#g)"/></svg>