<svg xmlns="http://www.w3.org/2000/svg" viewBox="0 0 1400 700" width="1400" height="700"><defs><filter id="g"><feTurbulence type="fractalNoise" baseFrequency="0.9" numOctaves="2"/><feColorMatrix type="matrix" values="0 0 0 0 0  0 0 0 0 0  0 0 0 0 0  0 0 0 0.05 0"/></filter></defs><rect width="1400" height="700" fill="#00A398"/><path d="M 417.8 81.4 Q 490.3 229.4 377.9 258.6 Q 265.5 287.8 121.4 346.3 Q -22.6 404.8 -115.8 248.7 Q -208.9 92.6 -132.9 -2.7 Q -56.8 -98 -6.3 -190.8 Q 44.3 -283.6 194.8 -175.1 Q 345.4 -66.5 417.8 81.4 Z" fill="#EF3340" opacity="0.8"/><path d="M 1556.6 31.6 Q 1548.3 104.6 1518.6 159.6 Q 1489 214.6 1423.2 222.5 Q 1357.3 230.4 1241.9 241.4 Q 1126.4 252.4 1127.5 187.8 Q 1128.5 123.3 1148.8 62.6 Q 1169.1 1.9 1235.4 -63.2 Q 1301.7 -128.3 1388 -106.6 Q 1474.2 -84.9 1519.6 -63.1 Q 1564.9 -41.3 1556.6 31.6 Z" fill="#1B75BB" opacity="0.8"/><path d="M 1433.9 12.5 Q 1451.4 78.1 1437.1 104.5 Q 1422.8 130.9 1354.4 164.8 Q 1286 198.7 1260.3 148.8 Q 1234.5 99 1174.6 66.4 Q 1114.7 33.8 1147 -41.8 Q 1179.3 -117.4 1205.6 -144.4 Q 1231.9 -171.4 1321 -175.9 Q 1410.2 -180.3 1413.3 -116.6 Q 1416.4 -53 1433.9 12.5 Z" fill="#1B75BB" opacity="0.9"/><path d="M 1479.1 201.5 Q 1499.4 253 1453.9 331.9 Q 1408.3 410.8 1285.3 411.9 Q 1162.2 412.9 1150.7 320.8 Q 1139.2 228.7 1171.3 158.4 Q 1203.4 88.1 1257 67.7 Q 1310.6 47.4 1384.7 98.6 Q 1458.8 149.9 1479.1 201.5 Z" fill="#F26B3A" opacity="0.8"/><path d="M 1456.5 564.7 Q 1449.5 642 1419.5 734.8 Q 1389.5 827.5 1286.7 833.6 Q 1183.8 839.6 1140.1 773.8 Q 1096.4 707.9 1098.6 666.9 Q 1100.9 625.8 1140.4 544.1 Q 1180 462.4 1261.5 454.6 Q 1343 446.9 1403.2 467.1 Q 1463.5 487.4 1456.5 564.7 Z" fill="#E0A526" opacity="0.8"/><path d="M 642.4 3.7 Q 642.6 137.3 545.5 313.3 Q 448.3 489.2 280 396.8 Q 111.7 304.5 -16.3 230.4 Q -144.3 156.4 -23.3 32.5 Q 97.7 -91.4 196.3 -240.2 Q 294.9 -389 468.5 -259.4 Q 642.2 -129.9 642.4 3.7 Z" fill="#E0A526" opacity="0.8"/><path d="M 1485.6 575 Q 1502.8 753.2 1405.2 879 Q 1307.5 1004.8 1078.9 920.7 Q 850.3 836.6 781.7 683.7 Q 713.1 530.7 894 352.9 Q 1075 175.2 1271.7 286 Q 1468.4 396.8 1485.6 575 Z" fill="#00776F" opacity="0.9"/><path d="M 440.9 492.7 Q 259.1 446.9 137.5 374.9" fill="none" stroke="#1B75BB" stroke-width="33.3" stroke-linecap="round" opacity="0.7"/><path d="M 135.9 445.4 Q 147.8 414.3 563.7 206.7" fill="none" stroke="#14568A" stroke-width="31.7" stroke-linecap="round" opacity="0.7"/><path d="M 477.2 260.6 Q 932.9 258.6 1013.8 142.6" fill="none" stroke="#F1EFE8" stroke-width="16.4" stroke-linecap="round" opacity="0.8"/><path d="M 1381.8 398.2 Q 1542.3 492.1 1166.8 358.9" fill="none" stroke="#FFCD00" stroke-width="32.1" stroke-linecap="round" opacity="0.9"/><path d="M 713.2 196.1 Q 1117.2 53.7 1210.2 -66.5" fill="none" stroke="#14568A" stroke-width="27.3" stroke-linecap="round" opacity="0.7"/><path d="M 1352.5 118.2 Q 1326.9 352.3 918 381.4" fill="none" stroke="#14568A" stroke-width="39.9" stroke-linecap="round" opacity="0.8"/><path d="M 1155.9 562 Q 996.6 666.3 1358 825.7" fill="none" stroke="#E0A526" stroke-width="26.5" stroke-linecap="round" opacity="0.7"/><path d="M 194.8 345.2 Q 49.7 280.3 218.9 448.5" fill="none" stroke="#00A398" stroke-width="17.6" stroke-linecap="round" opacity="0.9"/><path d="M 666.8 566.2 Q 645.9 341.7 486.9 388.4" fill="none" stroke="#00776F" stroke-width="32.6" stroke-linecap="round" opacity="0.8"/><path d="M 461.5 109.3 Q 523.5 183.7 114.4 95.9" fill="none" stroke="#E0A526" stroke-width="42.1" stroke-linecap="round" opacity="0.8"/><path d="M 480.5 436.2 Q 193.3 464.6 97.1 624.9" fill="none" stroke="#F1EFE8" stroke-width="55.4" stroke-linecap="round" opacity="0.7"/><path d="M 1091.3 316.5 Q 1086.9 318.6 1088.7 200.4" fill="none" stroke="#00776F" stroke-width="26.3" stroke-linecap="round" opacity="0.8"/><path d="M 293.8 216.8 Q 625.4 313.3 620.7 313.8" fill="none" stroke="#B0202B" stroke-width="46.4" stroke-linecap="round" opacity="0.7"/><path d="M 747.8 671.4 Q 1006.8 779.4 841.1 798.6" fill="none" stroke="#F26B3A" stroke-width="33.3" stroke-linecap="round" opacity="0.9"/><path d="M 1232.4 363.6 Q 1697.1 352.6 1737.7 257.6" fill="none" stroke="#14568A" stroke-width="52.1" stroke-linecap="round" opacity="0.9"/><path d="M 1055.4 26.2 Q 1306.3 -223.3 1344.7 -224.8" fill="none" stroke="#00A398" stroke-width="29.9" stroke-linecap="round" opacity="0.9"/><path d="M 408.3 141.3 Q 378.3 -47.6 906.2 -47.4" fill="none" stroke="#1B75BB" stroke-width="19.8" stroke-linecap="round" opacity="0.7"/><path d="M 1235.8 564.3 Q 842.6 571.8 893.7 355.8" fill="none" stroke="#B0202B" stroke-width="11.3" stroke-linecap="round" opacity="0.8"/><path d="M 55.4 174.9 Q 195.1 395.8 285.7 338.6" fill="none" stroke="#EF3340" stroke-width="12.5" stroke-linecap="round" opacity="0.7"/><rect width="1400" height="700" filter="url(#g)"/></svg>