<svg xmlns="http://www.w3.org/2000/svg" viewBox="0 0 1089 1400" width="1089" height="1400"><defs><filter id="g"><feTurbulence type="fractalNoise" baseFrequency="0.9" numOctaves="2"/><feColorMatrix type="matrix" values="0 0 0 0 0  0 0 0 0 0  0 0 0 0 0  0 0 0 0.04 0"/></filter></defs><rect width="1089" height="1400" fill="#F5EEDC"/><rect x="98.00999999999999" y="98.00999999999999" width="892.98" height="1203.98" fill="none" stroke="#C9A227" stroke-width="13.068"/><rect x="156.816" y="156.816" width="326.7" height="326.7" fill="#C9A227"/><path d="M 327.8 183.5 Q 317.3 210.2 314.5 234.2 Q 311.7 258.2 280.3 259.2 Q 248.9 260.1 228.9 243.3 Q 208.9 226.5 214.2 185 Q 219.6 143.5 240.2 148 Q 260.7 152.5 299.5 154.6 Q 338.3 156.8 327.8 183.5 Z" fill="#1B75BB" opacity="0.85"/><path d="M 450.8 317.7 Q 451.9 341 443.2 364.4 Q 434.6 387.8 406.6 391.2 Q 378.5 394.6 363.3 371.7 Q 348.1 348.8 356 306.6 Q 363.9 264.5 393.8 269.3 Q 423.7 274.1 436.7 284.3 Q 449.7 294.5 450.8 317.7 Z" fill="#8A2BE2" opacity="0.85"/><path d="M 383 195.6 Q 381.9 210.7 367.1 231.5 Q 352.3 252.3 319.9 272.1 Q 287.4 291.9 286.6 269.8 Q 285.8 247.6 272 236.4 Q 258.1 225.1 256.1 190.5 Q 254.1 155.9 278.9 162.7 Q 303.6 169.6 317.3 155.6 Q 330.9 141.7 357.5 161.1 Q 384.1 180.4 383 195.6 Z" fill="#EF3340" opacity="0.85"/><path d="M 498.9 254.7 Q 493.5 277.7 487.4 292.4 Q 481.3 307.2 455.9 313.1 Q 430.4 319 413.3 300.4 Q 396.1 281.8 401.4 243.7 Q 406.6 205.6 429.9 196.1 Q 453.2 186.6 478.7 209.1 Q 504.3 231.7 498.9 254.7 Z" fill="#00A398" opacity="0.85"/><path d="M 533.1 423.5 Q 552.5 449.4 541.5 467.9 Q 530.4 486.3 495.1 490.7 Q 459.7 495.2 431.5 477 Q 403.4 458.7 402.4 421.2 Q 401.5 383.7 415.5 376 Q 429.5 368.3 466.2 364.5 Q 503 360.7 508.4 379.1 Q 513.8 397.6 533.1 423.5 Z" fill="#1B75BB" opacity="0.85"/><path d="M 251.6 453.4 Q 259.4 488.1 235.6 514.8 Q 211.8 541.5 191.6 524.9 Q 171.3 508.3 155.1 493.4 Q 138.8 478.5 160.6 455.2 Q 182.4 431.9 213.1 425.3 Q 243.8 418.7 251.6 453.4 Z" fill="#8A2BE2" opacity="0.85"/><rect x="156.816" y="156.816" width="326.7" height="326.7" fill="none" stroke="#2B2620" stroke-width="6.534"/><rect x="537.966" y="186.2" width="341.7" height="13.068" fill="#2B2620" opacity="0.75"/><rect x="537.966" y="235.2" width="357.9" height="13.068" fill="#2B2620" opacity="0.75"/><rect x="537.966" y="284.2" width="352.1" height="13.068" fill="#2B2620" opacity="0.75"/><rect x="537.966" y="333.2" width="337.7" height="13.068" fill="#2B2620" opacity="0.75"/><rect x="537.966" y="382.2" width="378" height="13.068" fill="#2B2620" opacity="0.75"/><rect x="537.966" y="431.2" width="383.2" height="13.068" fill="#2B2620" opacity="0.75"/><rect x="537.966" y="480.2" width="361.3" height="13.068" fill="#2B2620" opacity="0.75"/><rect x="156.816" y="553.5" width="706.8" height="13.068" fill="#2B2620" opacity="0.75"/><rect x="156.816" y="602.5" width="697.1" height="13.068" fill="#2B2620" opacity="0.75"/><rect x="156.816" y="651.5" width="746.6" height="13.068" fill="#2B2620" opacity="0.75"/><rect x="156.816" y="700.5" width="771.5" height="13.068" fill="#2B2620" opacity="0.75"/><rect x="156.816" y="749.5" width="669.7" height="13.068" fill="#2B2620" opacity="0.75"/><rect x="156.816" y="798.5" width="653.6" height="13.068" fill="#2B2620" opacity="0.75"/><rect x="156.816" y="847.5" width="735.7" height="13.068" fill="#2B2620" opacity="0.75"/><rect x="156.816" y="896.6" width="689.6" height="13.068" fill="#2B2620" opacity="0.75"/><rect x="156.816" y="945.6" width="705.7" height="13.068" fill="#2B2620" opacity="0.75"/><rect x="156.816" y="994.6" width="733.9" height="13.068" fill="#2B2620" opacity="0.75"/><rect x="156.816" y="1043.6" width="759.4" height="13.068" fill="#2B2620" opacity="0.75"/><rect x="156.816" y="1092.6" width="683.9" height="13.068" fill="#2B2620" opacity="0.75"/><rect x="156.816" y="1141.6" width="752.6" height="13.068" fill="#2B2620" opacity="0.75"/><rect x="156.816" y="1190.6" width="744.2" height="13.068" fill="#2B2620" opacity="0.75"/><path d="M 975.5 615.6 Q 1083.9 999.4 1125 850.8" fill="none" stroke="#C9A227" stroke-width="6.534" opacity="0.5"/><path d="M 454.1 150.8 Q 81.1 130 39.8 -270.4" fill="none" stroke="#C9A227" stroke-width="6.534" opacity="0.5"/><path d="M 381 1329.4 Q 544.4 1263 450.9 1328" fill="none" stroke="#C9A227" stroke-width="6.534" opacity="0.5"/><path d="M 757.5 443.7 Q 703.4 509.7 731.4 926.3" fill="none" stroke="#C9A227" stroke-width="6.534" opacity="0.5"/><path d="M 629.8 1224 Q 490.7 1769.1 301.8 1767.8" fill="none" stroke="#C9A227" stroke-width="6.534" opacity="0.5"/><rect width="1089" height="1400" filter="url(#g)"/></svg>