<svg xmlns="http://www.w3.org/2000/svg" viewBox="0 0 1400 1050" width="1400" height="1050"><defs><filter id="g"><feTurbulence type="fractalNoise" baseFrequency="0.9" numOctaves="2"/><feColorMatrix type="matrix" values="0 0 0 0 0  0 0 0 0 0  0 0 0 0 0  0 0 0 0.05 0"/></filter></defs><rect width="1400" height="1050" fill="#1B75BB"/><path d="M 793.9 278.9 Q 800.1 373.5 715.2 465.3 Q 630.4 557.1 581.9 672.6 Q 533.4 788 365.7 707.5 Q 197.9 626.9 210.7 482.8 Q 223.4 338.7 142.2 246.6 Q 61 154.5 268.4 98.2 Q 475.7 42 562.4 41.8 Q 649.1 41.6 718.4 112.9 Q 787.7 184.2 793.9 278.9 Z" fill="#FFCD00" opacity="0.8"/><path d="M 387.9 831.1 Q 396.3 936.3 347.6 948.4 Q 298.9 960.5 252.7 1007.7 Q 206.5 1054.8 143.3 1012.8 Q 80.1 970.8 5.8 902.8 Q -68.5 834.7 -57.4 788.5 Q -46.2 742.2 59.3 723.1 Q 164.7 704 202.6 670.5 Q 240.5 637.1 310 681.4 Q 379.6 725.8 387.9 831.1 Z" fill="#E0A526" opacity="0.9"/><path d="M 1502.1 665.8 Q 1629.7 837.9 1418.8 900 Q 1207.9 962.2 967.9 1061.8 Q 727.9 1161.5 692.8 916.3 Q 657.7 671.1 706.6 503.9 Q 755.5 336.8 893.5 297.7 Q 1031.4 258.5 1202.9 376.1 Q 1374.5 493.6 1502.1 665.8 Z" fill="#00776F" opacity="0.8"/><path d="M 1524.4 621.4 Q 1552.7 696.2 1512.1 778 Q 1471.5 859.8 1385.6 830.2 Q 1299.7 800.7 1257.5 757.1 Q 1215.2 713.5 1162.3 631.8 Q 1109.4 550.1 1192.1 511.6 Q 1274.9 473 1321 492.9 Q 1367.1 512.7 1431.6 529.7 Q 1496.1 546.6 1524.4 621.4 Z" fill="#00776F" opacity="0.8"/><path d="M 1175.6 621.8 Q 1131.6 825 1054.6 908.5 Q 977.5 992 713.2 1044.5 Q 449 1097.1 296.2 1013.4 Q 143.4 929.7 255.3 563.4 Q 367.1 197.1 563.2 135.3 Q 759.2 73.5 989.4 246 Q 1219.7 418.6 1175.6 621.8 Z" fill="#14568A" opacity="0.9"/><path d="M 219.7 945.9 Q 205.5 1049.7 194.3 1128.8 Q 183.1 1207.9 47.4 1182 Q -88.2 1156.1 -85.1 1101.5 Q -82.1 1046.8 -102.3 928.8 Q -122.5 810.8 -53.2 839.3 Q 16.2 867.9 125.1 855 Q 234 842.1 219.7 945.9 Z" fill="#00A398" opacity="0.9"/><path d="M 624.4 282.7 Q 568.8 391.6 524.1 527.9 Q 479.4 664.2 277.5 686.9 Q 75.7 709.6 3.8 604.4 Q -68.1 499.1 -35.1 325.2 Q -2.1 151.3 124.3 94.7 Q 250.8 38 465.3 105.9 Q 679.9 173.7 624.4 282.7 Z" fill="#1B75BB" opacity="0.8"/><path d="M 415.9 866.4 Q 456.9 991.8 392.2 1199.7 Q 327.5 1407.6 180.2 1387.9 Q 33 1368.2 -18.9 1266.2 Q -70.8 1164.2 -177.1 1099.4 Q -283.5 1034.6 -210.3 879.1 Q -137.2 723.6 -79.1 590.8 Q -21 458 149.1 499.3 Q 319.2 540.7 347.1 640.8 Q 375 741 415.9 866.4 Z" fill="#14568A" opacity="0.8"/><path d="M 1218.9 823.3 Q 1265.2 908.1 1216 1031.3 Q 1166.9 1154.6 993 1145.8 Q 819.1 1137 700.3 1019.8 Q 581.4 902.6 696 781.7 Q 810.6 660.9 887.1 564 Q 963.5 467.1 1068.1 602.8 Q 1172.7 738.5 1218.9 823.3 Z" fill="#FFCD00" opacity="0.8"/><path d="M 133.9 848.7 Q 5 652.3 249.4 664.5" fill="none" stroke="#F1EFE8" stroke-width="15.9" stroke-linecap="round" opacity="0.8"/><path d="M 86.4 884 Q -246.8 856.3 -108.5 926.6" fill="none" stroke="#E0A526" stroke-width="45.6" stroke-linecap="round" opacity="0.8"/><path d="M 1156.6 539.9 Q 1104.7 431.5 1239.1 740.8" fill="none" stroke="#B0202B" stroke-width="60.3" stroke-linecap="round" opacity="0.7"/><path d="M 1265.8 720.7 Q 1394.3 761.8 1384.5 981.3" fill="none" stroke="#E0A526" stroke-width="17.4" stroke-linecap="round" opacity="0.6"/><path d="M 1298.7 876.2 Q 1298.4 772.7 1550.4 982.2" fill="none" stroke="#F1EFE8" stroke-width="53" stroke-linecap="round" opacity="0.7"/><path d="M 846.2 408.8 Q 935.5 444 971.5 576.2" fill="none" stroke="#B0202B" stroke-width="36.4" stroke-linecap="round" opacity="0.8"/><path d="M 1306.9 801.7 Q 1521.2 886.7 1318.1 660.7" fill="none" stroke="#14568A" stroke-width="49" stroke-linecap="round" opacity="0.7"/><path d="M 334.2 583.9 Q 295.5 327.9 474.3 165.4" fill="none" stroke="#00A398" stroke-width="55.8" stroke-linecap="round" opacity="0.9"/><path d="M 759.7 429 Q 724.8 347.4 667.7 77.5" fill="none" stroke="#14568A" stroke-width="58.7" stroke-linecap="round" opacity="0.7"/><path d="M 900.5 643.9 Q 1091.4 894 808.9 974.1" fill="none" stroke="#B0202B" stroke-width="54.6" stroke-linecap="round" opacity="0.9"/><path d="M 301.8 985.2 Q 329.3 1187.4 8.2 1248.9" fill="none" stroke="#EF3340" stroke-width="16.3" stroke-linecap="round" opacity="0.8"/><path d="M 27 580.6 Q -114 543.5 24.5 507.5" fill="none" stroke="#FFCD00" stroke-width="36.7" stroke-linecap="round" opacity="0.7"/><path d="M 68.5 980.8 Q 368.4 971.3 400.7 1351.4" fill="none" stroke="#14568A" stroke-width="47" stroke-linecap="round" opacity="0.7"/><path d="M 535.7 999 Q 207.3 730.5 210.7 768.6" fill="none" stroke="#FFCD00" stroke-width="24" stroke-linecap="round" opacity="0.7"/><path d="M 969.4 819 Q 1007.3 917.3 1093.1 651.7" fill="none" stroke="#F26B3A" stroke-width="60.8" stroke-linecap="round" opacity="0.6"/><path d="M 213.2 832.8 Q 420.3 1181.5 656.2 1165.8" fill="none" stroke="#EF3340" stroke-width="23.9" stroke-linecap="round" opacity="0.8"/><rect width="1400" height="1050" filter="url(#g)"/></svg>