<svg xmlns="http://www.w3.org/2000/svg" viewBox="0 0 1050 1400" width="1050" height="1400"><defs><filter id="g"><feTurbulence type="fractalNoise" baseFrequency="0.9" numOctaves="2"/><feColorMatrix type="matrix" values="0 0 0 0 0  0 0 0 0 0  0 0 0 0 0  0 0 0 0.05 0"/></filter></defs><rect width="1050" height="1400" fill="#EF3340"/><path d="M 563.8 779.5 Q 542.7 889.6 558.9 969.5 Q 575.1 1049.5 436.2 1036.9 Q 297.4 1024.3 178.2 992.7 Q 59 961.1 110.8 885.6 Q 162.6 810.2 157.1 649.8 Q 151.6 489.4 321.2 506.8 Q 490.7 524.2 537.8 596.8 Q 584.8 669.4 563.8 779.5 Z" fill="#00776F" opacity="0.8"/><path d="M 869.6 1341.2 Q 912.3 1402.8 895.4 1452.2 Q 878.6 1501.5 782.2 1500.2 Q 685.8 1498.9 672.3 1447.9 Q 658.8 1397 668.4 1342.8 Q 678 1288.5 735.4 1253.4 Q 792.9 1218.3 809.8 1248.9 Q 826.8 1279.6 869.6 1341.2 Z" fill="#00776F" opacity="0.8"/><path d="M 1261 287.1 Q 1372.7 351.7 1255.6 447.4 Q 1138.5 543 1067.2 607.4 Q 995.8 671.8 838.6 568.3 Q 681.4 464.8 700.8 398.8 Q 720.2 332.8 808.3 230.9 Q 896.4 129 993.4 115.7 Q 1090.5 102.4 1119.9 162.4 Q 1149.3 222.4 1261 287.1 Z" fill="#F1EFE8" opacity="1"/><path d="M 875.5 439 Q 868.7 467.9 875.7 511.8 Q 882.7 555.7 828.7 536 Q 774.7 516.4 744.4 502.3 Q 714.1 488.2 709.5 459.5 Q 705 430.7 701.6 385.1 Q 698.1 339.4 755.5 336.2 Q 812.9 333 847.6 371.5 Q 882.3 410.1 875.5 439 Z" fill="#1B75BB" opacity="1"/><path d="M 569.1 1010.2 Q 611.3 1132 486.3 1238.5 Q 361.4 1345 237.6 1377.4 Q 113.8 1409.7 -0.7 1272.8 Q -115.1 1136 -17.7 956.1 Q 79.8 776.3 134.3 677.9 Q 188.8 579.4 357.9 733.9 Q 526.9 888.5 569.1 1010.2 Z" fill="#00A398" opacity="1"/><path d="M 1294.4 261.4 Q 1251.9 460.4 1200.7 562.7 Q 1149.5 665.1 1043 670.7 Q 936.5 676.3 856.5 529.4 Q 776.4 382.5 775.8 242 Q 775.2 101.6 876.4 71.7 Q 977.5 41.9 1157.2 52.1 Q 1336.9 62.4 1294.4 261.4 Z" fill="#00776F" opacity="0.8"/><path d="M 1259.8 1073.4 Q 1282.5 1210.2 1166.8 1237.5 Q 1051 1264.9 979.7 1309.6 Q 908.4 1354.2 841.3 1321 Q 774.2 1287.7 695 1188.1 Q 615.7 1088.5 728 1002.7 Q 840.3 916.9 945.7 911.6 Q 1051.2 906.4 1144.2 921.5 Q 1237.2 936.7 1259.8 1073.4 Z" fill="#B0202B" opacity="0.8"/><path d="M 346.8 1286.6 Q 399.7 1358.8 327.9 1413.9 Q 256 1468.9 176.1 1479.1 Q 96.1 1489.2 75.7 1450.1 Q 55.4 1410.9 65.5 1332 Q 75.7 1253.1 77.6 1200.9 Q 79.6 1148.8 154.9 1129.9 Q 230.2 1111.1 262.1 1162.7 Q 293.9 1214.3 346.8 1286.6 Z" fill="#EF3340" opacity="1"/><path d="M 871.4 923.4 Q 747.8 758.1 803.6 974.1" fill="none" stroke="#FFCD00" stroke-width="25" stroke-linecap="round" opacity="0.7"/><path d="M 698.2 1112.1 Q 684.3 1184.5 1031.1 1646.5" fill="none" stroke="#14568A" stroke-width="20.8" stroke-linecap="round" opacity="0.9"/><path d="M 356 472.4 Q 521.3 447.5 335.4 120" fill="none" stroke="#B0202B" stroke-width="14.3" stroke-linecap="round" opacity="0.8"/><path d="M 202.2 64.4 Q 214.2 175.3 531.1 468.8" fill="none" stroke="#FFCD00" stroke-width="30.9" stroke-linecap="round" opacity="0.8"/><path d="M 826.4 95.8 Q 778.6 -78.6 443.1 -33.9" fill="none" stroke="#FFCD00" stroke-width="41.1" stroke-linecap="round" opacity="0.7"/><path d="M 555.6 90.5 Q 781.6 384.2 951.3 465.9" fill="none" stroke="#14568A" stroke-width="35.2" stroke-linecap="round" opacity="0.8"/><path d="M 967.7 146.2 Q 1190.3 87.8 1290.8 -18.5" fill="none" stroke="#F26B3A" stroke-width="13.7" stroke-linecap="round" opacity="0.7"/><path d="M 407.9 518.3 Q 52.8 485.7 21.3 674.2" fill="none" stroke="#00776F" stroke-width="38.2" stroke-linecap="round" opacity="0.7"/><path d="M 814.8 768.9 Q 868.2 756.7 1033.5 943.3" fill="none" stroke="#E0A526" stroke-width="22.9" stroke-linecap="round" opacity="0.6"/><path d="M 392.3 1177.6 Q 646.5 1391.4 735.4 1694.8" fill="none" stroke="#F26B3A" stroke-width="13" stroke-linecap="round" opacity="0.8"/><path d="M 301 287 Q 97.6 -15.5 123.6 -197.9" fill="none" stroke="#FFCD00" stroke-width="45.4" stroke-linecap="round" opacity="0.8"/><path d="M 147.2 1255.8 Q 418.5 1271.5 271.3 1251.7" fill="none" stroke="#F26B3A" stroke-width="14.2" stroke-linecap="round" opacity="0.6"/><path d="M 659.5 893.7 Q 663.8 846.5 863 395.8" fill="none" stroke="#14568A" stroke-width="11.8" stroke-linecap="round" opacity="0.6"/><path d="M 330.9 589.7 Q 282.5 705.8 451 914.8" fill="none" stroke="#B0202B" stroke-width="28.2" stroke-linecap="round" opacity="0.8"/><path d="M 1039.7 463.8 Q 1036 452 961.5 824.7" fill="none" stroke="#00776F" stroke-width="28.9" stroke-linecap="round" opacity="0.8"/><path d="M 1012.4 757.8 Q 1004.9 1077.5 1036.3 1051.2" fill="none" stroke="#FFCD00" stroke-width="26.3" stroke-linecap="round" opacity="0.7"/><rect width="1050" height="1400" filter="url(#g)"/></svg>