<svg xmlns="http://www.w3.org/2000/svg" viewBox="0 0 1120 1400" width="1120" height="1400"><defs><filter id="g"><feTurbulence type="fractalNoise" baseFrequency="0.9" numOctaves="2"/><feColorMatrix type="matrix" values="0 0 0 0 0  0 0 0 0 0  0 0 0 0 0  0 0 0 0.05 0"/></filter></defs><rect width="1120" height="1400" fill="#EF3340"/><path d="M 637.2 361.5 Q 607.1 451 567.3 604.9 Q 527.5 758.9 378.2 677.5 Q 228.8 596.1 108.9 428.1 Q -11.1 260 130.2 162.7 Q 271.5 65.4 469.4 168.7 Q 667.3 272.1 637.2 361.5 Z" fill="#1B75BB" opacity="1"/><path d="M 959 1199.2 Q 1012.2 1309.5 855.7 1483.7 Q 699.1 1657.9 603.1 1622.9 Q 507.1 1587.9 416.3 1503.4 Q 325.5 1418.8 295.5 1331.5 Q 265.5 1244.2 314.8 1110.6 Q 364 977.1 489.1 858.2 Q 614.3 739.2 760.1 914 Q 905.8 1088.9 959 1199.2 Z" fill="#B0202B" opacity="1"/><path d="M 694.1 1130.4 Q 725 1216.5 682 1325.1 Q 639 1433.7 536.5 1361.6 Q 434.1 1289.4 337.3 1234.6 Q 240.6 1179.9 387.8 1043.9 Q 535 908 599.1 976.1 Q 663.2 1044.3 694.1 1130.4 Z" fill="#B0202B" opacity="0.8"/><path d="M 417.1 394.6 Q 438.7 508.2 381.7 608.7 Q 324.7 709.2 249.4 693.5 Q 174.1 677.8 25.3 652.4 Q -123.5 626.9 -61.7 537 Q 0 447 -7.8 348.5 Q -15.7 249.9 140.3 174.7 Q 296.3 99.5 345.9 190.3 Q 395.5 281 417.1 394.6 Z" fill="#00776F" opacity="0.8"/><path d="M 1253.6 794.7 Q 1188.7 885.6 1111.2 986.9 Q 1033.6 1088.3 908.7 1113.9 Q 783.8 1139.6 568.4 1080.6 Q 353.1 1021.7 384.9 924.7 Q 416.8 827.6 453.3 625.4 Q 489.9 423.3 747.5 497.5 Q 1005.2 571.8 1161.8 637.8 Q 1318.4 703.7 1253.6 794.7 Z" fill="#00A398" opacity="1"/><path d="M 1095.7 868.9 Q 1170.5 1049 1069.2 1117.5 Q 968 1185.9 787.4 1143.4 Q 606.9 1100.8 635.9 968.5 Q 664.9 836.1 741.4 789.4 Q 817.9 742.8 919.4 715.7 Q 1020.9 688.7 1095.7 868.9 Z" fill="#00776F" opacity="0.9"/><path d="M 482.9 1331.8 Q 520.1 1391.1 446.7 1457.4 Q 373.3 1523.8 320.6 1498 Q 267.9 1472.2 237.6 1424.4 Q 207.3 1376.6 169.2 1335.8 Q 131.2 1295 221.8 1284.5 Q 312.3 1274.1 379 1273.3 Q 445.7 1272.5 482.9 1331.8 Z" fill="#E0A526" opacity="0.8"/><path d="M 367.8 317 Q 380 459.9 272.2 487.9 Q 164.4 515.9 91 552.1 Q 17.6 588.4 -108.3 575.7 Q -234.2 563 -262.9 490 Q -291.7 417 -187.2 342.3 Q -82.7 267.7 -77.5 189.1 Q -72.4 110.6 62.2 140 Q 196.8 169.4 276.2 171.7 Q 355.6 174.1 367.8 317 Z" fill="#00A398" opacity="0.8"/><path d="M 186.3 1259.7 Q 235.7 1324.2 280.6 1614.8" fill="none" stroke="#1B75BB" stroke-width="41.9" stroke-linecap="round" opacity="0.8"/><path d="M 497.8 1346.8 Q 571.9 1437.3 659.2 1558.7" fill="none" stroke="#E0A526" stroke-width="12.5" stroke-linecap="round" opacity="0.9"/><path d="M 965.4 239.9 Q 1158.1 200.6 1374.5 309.2" fill="none" stroke="#00776F" stroke-width="45.8" stroke-linecap="round" opacity="0.9"/><path d="M 616.2 319.7 Q 587 324.7 1001.2 203.3" fill="none" stroke="#00776F" stroke-width="30.3" stroke-linecap="round" opacity="0.7"/><path d="M 692.8 178.1 Q 910.1 202.6 848.3 259.4" fill="none" stroke="#B0202B" stroke-width="40.2" stroke-linecap="round" opacity="0.7"/><path d="M 312.5 270.4 Q 335.7 168.2 480 303.8" fill="none" stroke="#00A398" stroke-width="31" stroke-linecap="round" opacity="0.7"/><path d="M 157.7 7.8 Q 428.6 147.4 312.5 -247.1" fill="none" stroke="#00776F" stroke-width="38.8" stroke-linecap="round" opacity="0.9"/><path d="M 672.2 1305.6 Q 334.3 1258.7 409.3 1561.5" fill="none" stroke="#F26B3A" stroke-width="30.7" stroke-linecap="round" opacity="0.8"/><path d="M 791.5 318.4 Q 806.7 -110.2 985.4 -4.2" fill="none" stroke="#FFCD00" stroke-width="39.3" stroke-linecap="round" opacity="0.9"/><path d="M 844.9 724 Q 1062.8 311.9 944.1 392.4" fill="none" stroke="#00776F" stroke-width="43.1" stroke-linecap="round" opacity="0.9"/><path d="M 586 956.6 Q 458.7 1039.6 258.9 582" fill="none" stroke="#00776F" stroke-width="26.2" stroke-linecap="round" opacity="0.9"/><path d="M 649 1209 Q 421.9 1198.3 588.1 741.1" fill="none" stroke="#1B75BB" stroke-width="42.6" stroke-linecap="round" opacity="0.9"/><path d="M 961 585.4 Q 663.7 527.8 684.6 239.2" fill="none" stroke="#F1EFE8" stroke-width="11.3" stroke-linecap="round" opacity="0.7"/><path d="M 865.7 1330 Q 970.8 1335.8 1195.5 1218.9" fill="none" stroke="#F26B3A" stroke-width="46.4" stroke-linecap="round" opacity="0.8"/><path d="M 457.7 1227.5 Q 332.8 722.8 495.3 703.6" fill="none" stroke="#E0A526" stroke-width="43.9" stroke-linecap="round" opacity="0.7"/><rect width="1120" height="1400" filter="url(#g)"/></svg>