<svg xmlns="http://www.w3.org/2000/svg" viewBox="0 0 1050 1400" width="1050" height="1400"><defs><filter id="g"><feTurbulence type="fractalNoise" baseFrequency="0.9" numOctaves="2"/><feColorMatrix type="matrix" values="0 0 0 0 0  0 0 0 0 0  0 0 0 0 0  0 0 0 0.05 0"/></filter></defs><rect width="1050" height="1400" fill="#00A398"/><path d="M 764.5 422.3 Q 740 570.8 671.1 711.2 Q 602.3 851.5 399.9 788.1 Q 197.6 724.7 128.6 665.8 Q 59.6 607 99.2 380.4 Q 138.8 153.8 251.6 179.6 Q 364.4 205.3 576.8 239.6 Q 789.1 273.8 764.5 422.3 Z" fill="#1B75BB" opacity="0.9"/><path d="M 1007.9 596.4 Q 1070.1 783.1 988.5 842.4 Q 907 901.8 743.2 902.1 Q 579.5 902.3 532.8 789.4 Q 486.1 676.4 452.2 579.7 Q 418.2 483 474.5 356.4 Q 530.8 229.8 652.8 289 Q 774.9 348.3 860.3 379 Q 945.8 409.8 1007.9 596.4 Z" fill="#1B75BB" opacity="0.9"/><path d="M 595.5 1156.9 Q 614.6 1180.8 564.2 1246.3 Q 513.8 1311.8 439.3 1354.5 Q 364.8 1397.2 336.8 1344.2 Q 308.9 1291.2 289.9 1197.3 Q 270.9 1103.3 298.9 1080 Q 326.9 1056.7 398.6 1027.9 Q 470.2 999 523.3 1066 Q 576.4 1133 595.5 1156.9 Z" fill="#00A398" opacity="0.8"/><path d="M 310.8 581.5 Q 320.6 644.8 279 718.7 Q 237.3 792.5 103.1 836 Q -31.1 879.4 -35.1 755 Q -39.2 630.5 56.1 545.3 Q 151.4 460.1 226.2 489.2 Q 301 518.3 310.8 581.5 Z" fill="#14568A" opacity="0.9"/><path d="M 411.5 1114 Q 440.5 1217.3 357.4 1291.9 Q 274.4 1366.4 209.3 1347.3 Q 144.2 1328.2 70.9 1184 Q -2.4 1039.9 109.7 1011.8 Q 221.8 983.8 302.2 997.2 Q 382.6 1010.6 411.5 1114 Z" fill="#F1EFE8" opacity="1"/><path d="M 1154 878.1 Q 1193.5 954.5 1127.6 1014 Q 1061.7 1073.4 951.3 1128.4 Q 841 1183.4 754.4 1110.5 Q 667.8 1037.7 676.4 908.4 Q 685.1 779 754.1 691.2 Q 823.2 603.5 913.3 613.3 Q 1003.3 623.1 1058.9 712.4 Q 1114.4 801.7 1154 878.1 Z" fill="#EF3340" opacity="0.9"/><path d="M 227.2 836.4 Q 251.1 948.4 201.5 1029.4 Q 151.9 1110.3 -18.5 1084.9 Q -188.9 1059.6 -164.7 942.7 Q -140.5 825.8 -75.5 720.9 Q -10.5 616.1 96.4 670.2 Q 203.3 724.3 227.2 836.4 Z" fill="#E0A526" opacity="1"/><path d="M 596.5 225.9 Q 517.6 400.8 471.7 580.2 Q 425.7 759.7 288 757.7 Q 150.2 755.8 60.1 610.8 Q -30 465.8 -110.7 299.7 Q -191.4 133.7 41.2 50.1 Q 273.8 -33.5 474.6 8.7 Q 675.4 51 596.5 225.9 Z" fill="#1B75BB" opacity="0.8"/><path d="M 967.8 310.6 Q 1037.3 424.5 965.1 502.3 Q 892.9 580.2 740.8 539.9 Q 588.7 499.7 502.1 444.9 Q 415.5 390 456.6 244.5 Q 497.8 99 572.1 71 Q 646.5 42.9 772.4 119.8 Q 898.3 196.8 967.8 310.6 Z" fill="#E0A526" opacity="0.8"/><path d="M 1166.9 80.2 Q 1142.8 152.6 1111.1 214.6 Q 1079.4 276.6 1003.6 301.8 Q 927.8 326.9 903.6 245.8 Q 879.4 164.8 855.6 85.7 Q 831.7 6.7 895.9 -51.6 Q 960.1 -109.9 1075.6 -51.1 Q 1191.1 7.7 1166.9 80.2 Z" fill="#1B75BB" opacity="0.8"/><path d="M 692 91.8 Q 656.2 132.5 981.6 224.6" fill="none" stroke="#14568A" stroke-width="37.9" stroke-linecap="round" opacity="0.7"/><path d="M 815.7 690.9 Q 641.1 900.7 815.1 1172.2" fill="none" stroke="#F26B3A" stroke-width="10" stroke-linecap="round" opacity="0.8"/><path d="M 379.5 894.2 Q 545.9 1134.2 632.6 1037.1" fill="none" stroke="#F26B3A" stroke-width="39.1" stroke-linecap="round" opacity="0.7"/><path d="M 471.6 755.2 Q 795.5 843 748.2 904.6" fill="none" stroke="#F1EFE8" stroke-width="22.9" stroke-linecap="round" opacity="0.9"/><path d="M 756.9 564.4 Q 475.6 814.3 447.8 710.5" fill="none" stroke="#14568A" stroke-width="36.3" stroke-linecap="round" opacity="0.9"/><path d="M 360.6 804.4 Q 558.8 735.4 665.2 1017.1" fill="none" stroke="#00A398" stroke-width="19.6" stroke-linecap="round" opacity="0.9"/><path d="M 442.6 699.6 Q 669.4 521.3 499.2 180.2" fill="none" stroke="#14568A" stroke-width="33.3" stroke-linecap="round" opacity="0.8"/><path d="M 190.5 639.9 Q 310.5 470.6 304.8 624.5" fill="none" stroke="#F26B3A" stroke-width="18.1" stroke-linecap="round" opacity="0.6"/><path d="M 528.6 745.5 Q 266.9 1138.4 391.2 1289" fill="none" stroke="#1B75BB" stroke-width="35.8" stroke-linecap="round" opacity="0.8"/><path d="M 54.8 100.7 Q 21.6 -203.5 388.8 -310.6" fill="none" stroke="#F1EFE8" stroke-width="38.8" stroke-linecap="round" opacity="0.8"/><path d="M 554.6 875.1 Q 422.4 722.6 632.2 986.3" fill="none" stroke="#B0202B" stroke-width="22.5" stroke-linecap="round" opacity="0.9"/><path d="M 623.6 960.8 Q 809.8 952.8 950 1190.2" fill="none" stroke="#B0202B" stroke-width="21.3" stroke-linecap="round" opacity="0.8"/><path d="M 128.1 70.3 Q 199.6 -290.8 -101.8 -342.3" fill="none" stroke="#00776F" stroke-width="36.9" stroke-linecap="round" opacity="0.9"/><rect width="1050" height="1400" filter="url(#g)"/></svg>